<svg xmlns="http://www.w3.org/2000/svg" width="22" height="22" viewBox="0 0 22 22"><defs><style>.a{fill:#f90;}</style></defs><path class="a" d="M22,18.39H18.391V22H16.672V18.39H13.063V16.671h3.609V13.062h1.719v3.609H22ZM12.861,9.6a4.852,4.852,0,0,1-1.607,4.762l.09.036v1.9a6.447,6.447,0,0,0-3.094-.786v0H8.207A6.5,6.5,0,0,0,1.719,22H0A8.22,8.22,0,0,1,5.059,14.42,4.854,4.854,0,0,1,9.052,5.89a4.845,4.845,0,1,1,7.817,2.685A8.1,8.1,0,0,1,20.405,11.3H18.091a6.461,6.461,0,0,0-3.965-1.624c-.114.008-.229.012-.345.012a4.844,4.844,0,0,1-.921-.088Zm-2.2-4.756a3.126,3.126,0,1,0,3.126-3.126,3.129,3.129,0,0,0-3.126,3.126Zm.6,5.812a3.137,3.137,0,1,0-3.137,3.137A3.14,3.14,0,0,0,11.258,10.655Zm0,0" transform="translate(0 0.001)"/></svg>