<svg xmlns="http://www.w3.org/2000/svg" width="15.999" height="15.999" viewBox="0 0 15.999 15.999">
  <g id="bank" transform="translate(0 -0.001)">
    <path id="Path_298" data-name="Path 298" d="M15.531,5.938A.469.469,0,0,0,16,5.469V3.594a.469.469,0,0,0-.289-.433L8.179.037a.469.469,0,0,0-.359,0L.289,3.161A.469.469,0,0,0,0,3.594V5.469a.469.469,0,0,0,.469.469h.812V11.25H1.125a.469.469,0,0,0-.469.469v1.406H.469A.469.469,0,0,0,0,13.594v1.937A.469.469,0,0,0,.469,16H15.531A.469.469,0,0,0,16,15.531V13.594a.469.469,0,0,0-.469-.469h-.187V11.719a.469.469,0,0,0-.469-.469h-.156V5.938Zm-.469,8.125v1H.937v-1ZM3.781,12.188v.937H1.594v-.937ZM2.219,11.25V5.938h.937V11.25Zm2.031,0H4.094V5.938h7.812V11.25h-.156a.469.469,0,0,0-.469.469v1.406H4.719V11.719A.469.469,0,0,0,4.25,11.25Zm10.156.937v.937H12.218v-.937Zm-1.562-.937V5.938h.937V11.25ZM.937,5V3.907L8,.977l7.062,2.93V5Z" transform="translate(0 0)" fill="#f90"/>
    <path id="Path_299" data-name="Path 299" d="M157.093,100h-5.625a.469.469,0,0,0,0,.937h5.625a.469.469,0,1,0,0-.937Z" transform="translate(-146.281 -96.874)" fill="#f90"/>
    <path id="Path_300" data-name="Path 300" d="M212.406,214.375a.469.469,0,0,1-.469-.469.469.469,0,0,0-.937,0,1.408,1.408,0,0,0,.937,1.326v.237a.469.469,0,1,0,.937,0v-.237a1.406,1.406,0,0,0-.469-2.732.469.469,0,1,1,.469-.469.469.469,0,1,0,.937,0,1.408,1.408,0,0,0-.937-1.326v-.237a.469.469,0,0,0-.937,0v.237a1.406,1.406,0,0,0,.469,2.732.469.469,0,0,1,0,.937Z" transform="translate(-204.407 -203.437)" fill="#f90"/>
  </g>
</svg>
