<svg xmlns="http://www.w3.org/2000/svg" width="212" height="48.175" viewBox="0 0 212 48.175">
  <g id="barcode-of-square-shape" transform="translate(0 -1.001)">
    <path id="Path_140" data-name="Path 140" d="M23.084,1h2.242V49.176H23.084ZM0,49.176H10.428V1H0Zm70.037,0h2.609V1H70.037Zm7.086,0H87.551V1H77.123Zm-29.064,0H58.487V1H48.059Zm-14.906,0h2.235V1H33.153Zm7.086,0h2.228V1H40.24Zm77.116,0h10.435V1H117.355Zm30.171,0h2.242V1h-2.242Zm-7.072,0H142.7V1h-2.242Zm-45.069,0h2.228V1H95.385Zm7.072,0h10.435V1H102.457Zm84.224,0H197.1V1H186.68ZM201.572,1V49.176H212V1ZM172.508,49.176h2.6V1h-2.6Zm-14.9,0h2.242V1h-2.242Zm7.072,0h2.235V1h-2.235Z"/>
  </g>
</svg>
