<svg xmlns="http://www.w3.org/2000/svg" width="16" height="18.285" viewBox="0 0 16 18.285"><defs><style>.a{fill:#646464;}</style></defs><g transform="translate(-43.714)"><g transform="translate(43.714)"><path class="a" d="M55.714,0H48.857a2.381,2.381,0,0,0-2.286,2.286l-.661.015a2.288,2.288,0,0,0-2.2,2.27V16A2.381,2.381,0,0,0,46,18.285h8.571A2.381,2.381,0,0,0,56.857,16h.571a2.381,2.381,0,0,0,2.286-2.286V4.585ZM54.571,17.142H46A1.2,1.2,0,0,1,44.857,16V4.571a1.133,1.133,0,0,1,1.089-1.124l.626-.019V13.714A2.381,2.381,0,0,0,48.857,16h6.857A1.2,1.2,0,0,1,54.571,17.142Zm4-3.428a1.2,1.2,0,0,1-1.143,1.143H48.857a1.2,1.2,0,0,1-1.143-1.143V2.286a1.2,1.2,0,0,1,1.143-1.143h5.714c-.009,1.316,0,2.3,0,2.3a2.354,2.354,0,0,0,2.286,2.271h1.714ZM56.857,4.571c-.609,0-1.143-1.106-1.143-1.7V1.161h0l2.857,3.412ZM55.714,8.01H50.571a.571.571,0,1,0,0,1.142h5.143a.571.571,0,1,0,0-1.142Zm0,2.854H50.571a.571.571,0,1,0,0,1.142h5.143a.571.571,0,1,0,0-1.142Z" transform="translate(-43.714)"/></g></g></svg>