<svg xmlns="http://www.w3.org/2000/svg" width="16.184" height="19.927" viewBox="0 0 16.184 19.927"><defs><style>.a{fill:#646464;}</style></defs><g transform="translate(0.003 0.001)"><path class="a" d="M222.865,154.7a.467.467,0,0,0-.467.467v8.82a.467.467,0,0,0,.933,0v-8.82A.467.467,0,0,0,222.865,154.7Zm0,0" transform="translate(-212.023 -147.485)"/><path class="a" d="M104.865,154.7a.467.467,0,0,0-.467.467v8.82a.467.467,0,0,0,.933,0v-8.82A.467.467,0,0,0,104.865,154.7Zm0,0" transform="translate(-99.529 -147.485)"/><path class="a" d="M1.322,5.931v11.5A2.575,2.575,0,0,0,2.007,19.2a2.3,2.3,0,0,0,1.667.721H12.5a2.3,2.3,0,0,0,1.667-.721,2.575,2.575,0,0,0,.685-1.776V5.931A1.783,1.783,0,0,0,14.4,2.425H12.009V1.842A1.833,1.833,0,0,0,10.161,0H6.017A1.833,1.833,0,0,0,4.169,1.842v.583H1.779a1.783,1.783,0,0,0-.457,3.506ZM12.5,18.992H3.674a1.478,1.478,0,0,1-1.419-1.563V5.972H13.922V17.428A1.478,1.478,0,0,1,12.5,18.992ZM5.1,1.842a.9.9,0,0,1,.915-.91h4.144a.9.9,0,0,1,.915.91v.583H5.1ZM1.779,3.359H14.4a.84.84,0,0,1,0,1.68H1.779a.84.84,0,0,1,0-1.68Zm0,0" transform="translate(0 0)"/><path class="a" d="M163.865,154.7a.467.467,0,0,0-.467.467v8.82a.467.467,0,0,0,.933,0v-8.82A.467.467,0,0,0,163.865,154.7Zm0,0" transform="translate(-155.776 -147.485)"/></g></svg>