<svg xmlns="http://www.w3.org/2000/svg" width="31.981" height="43" viewBox="0 0 31.981 43">
  <g id="woman" transform="translate(-76.657 0.5)">
    <path id="Path_141" data-name="Path 141" d="M179.35,90c-2.4,0-3.238,2.916-3.246,2.945a1.351,1.351,0,0,1-2.5.006c-.034-.12-.875-2.951-3.247-2.951a3.331,3.331,0,0,0-3.2,3.583c0,3.05,3.915,5.77,7.7,8.994,4-3.409,7.7-6.04,7.7-8.994A3.331,3.331,0,0,0,179.35,90Z" transform="translate(-82.205 -82.78)" fill="#ff72a8" stroke="#fff" stroke-width="1"/>
    <path id="Path_142" data-name="Path 142" d="M97.145,0a10.969,10.969,0,0,0-4.5.926A10.969,10.969,0,0,0,88.15,0,10.77,10.77,0,0,0,77.157,10.776c0,6.742,5.76,10.331,12.892,16.151v3.834h-5.2a1.266,1.266,0,0,0-1.3,1.23v2.461a1.266,1.266,0,0,0,1.3,1.23h5.2V40.77a1.266,1.266,0,0,0,1.3,1.23h2.6a1.266,1.266,0,0,0,1.3-1.23V35.684h5.2a1.266,1.266,0,0,0,1.3-1.23V31.992a1.266,1.266,0,0,0-1.3-1.23h-5.2V26.928c6.916-5.644,12.892-9.355,12.892-16.151A10.77,10.77,0,0,0,97.145,0ZM93.5,21.848a1.357,1.357,0,0,1-1.7,0c-4.867-4-9.442-6.87-9.442-11.072a5.763,5.763,0,0,1,5.8-5.854,5.545,5.545,0,0,1,4.5,2.239,5.545,5.545,0,0,1,4.5-2.239,5.763,5.763,0,0,1,5.8,5.854C102.941,14.931,98.7,17.576,93.5,21.848Z" fill="#ff72a8" stroke="#fff" stroke-width="1"/>
  </g>
</svg>
