<svg height="27.969" viewBox="0 0 27.965 27.969" width="27.965" xmlns="http://www.w3.org/2000/svg">
    <path
        d="M27.714,12.164l0,0L16.3.754a2.574,2.574,0,0,0-3.641,0l-11.4,11.4-.012.012a2.574,2.574,0,0,0,1.713,4.387c.026,0,.053,0,.08,0h.455v8.4a3.017,3.017,0,0,0,3.014,3.013h4.464a.819.819,0,0,0,.819-.819V20.566a1.376,1.376,0,0,1,1.375-1.375H15.8a1.376,1.376,0,0,1,1.375,1.375v6.582a.819.819,0,0,0,.819.819h4.464a3.017,3.017,0,0,0,3.014-3.013v-8.4h.422a2.575,2.575,0,0,0,1.822-4.394Zm-1.16,2.481a.93.93,0,0,1-.662.274H24.651a.819.819,0,0,0-.819.819v9.215a1.376,1.376,0,0,1-1.375,1.375H18.813V20.566A3.017,3.017,0,0,0,15.8,17.552H13.166a3.017,3.017,0,0,0-3.014,3.014v5.763H6.508a1.376,1.376,0,0,1-1.375-1.375V15.739a.819.819,0,0,0-.819-.819H3.095l-.038,0a.935.935,0,0,1-.645-1.6h0L13.821,1.912a.936.936,0,0,1,1.323,0L26.55,13.318l.005.005a.938.938,0,0,1,0,1.322Zm0,0"
        fill="#333" id="home" transform="translate(-0.5 0.001)" />
</svg>
