<svg xmlns="http://www.w3.org/2000/svg" width="22.319" height="22.001" viewBox="0 0 22.319 22.001">
  <g id="alarm" transform="translate(0 -0.41)">
    <path id="Path_227" data-name="Path 227" d="M128.728.41H121.27a1.867,1.867,0,0,0-1.864,1.864V3.393h.746V2.275a1.119,1.119,0,0,1,1.119-1.119h7.458a1.119,1.119,0,0,1,1.119,1.119V3.393h.746V2.275A1.867,1.867,0,0,0,128.728.41Zm0,0" transform="translate(-113.84)" fill="#cc7400"/>
    <path id="Path_228" data-name="Path 228" d="M72.36,96.984a8.581,8.581,0,1,1-2.513-6.063,8.581,8.581,0,0,1,2.513,6.063Zm0,0" transform="translate(-52.624 -83.896)" fill="#ff6243"/>
    <path id="Path_229" data-name="Path 229" d="M70.384,146.749A8.572,8.572,0,1,1,57.9,135.011c.127-.127.254-.246.388-.358a8.569,8.569,0,0,0,12.1,12.1Zm0,0" transform="translate(-52.803 -127.985)" fill="#d95339"/>
    <path id="Path_230" data-name="Path 230" d="M101.576,127.5a7.085,7.085,0,1,1-7.085-7.085A7.085,7.085,0,0,1,101.576,127.5Zm0,0" transform="translate(-83.332 -114.406)" fill="#ffd422"/>
    <path id="Path_231" data-name="Path 231" d="M99.862,167.279a7.081,7.081,0,1,1-9.986-9.986,7.08,7.08,0,0,0,9.986,9.986Zm0,0" transform="translate(-83.337 -149.57)" fill="#ebbf00"/>
    <path id="Path_232" data-name="Path 232" d="M97.643,425.529a1.119,1.119,0,1,1-1.119-1.119A1.119,1.119,0,0,1,97.643,425.529Zm0,0" transform="translate(-90.959 -404.236)" fill="#898890"/>
    <path id="Path_233" data-name="Path 233" d="M96.9,426.581a1.03,1.03,0,0,1-.373.067,1.119,1.119,0,0,1,0-2.237,1.035,1.035,0,0,1,.373.067,1.114,1.114,0,0,0,0,2.1Zm0,0" transform="translate(-90.959 -404.236)" fill="#787680"/>
    <path id="Path_234" data-name="Path 234" d="M337.643,425.529a1.119,1.119,0,1,1-1.119-1.119A1.119,1.119,0,0,1,337.643,425.529Zm0,0" transform="translate(-319.772 -404.236)" fill="#898890"/>
    <path id="Path_235" data-name="Path 235" d="M336.9,426.581a1.03,1.03,0,0,1-.373.067,1.119,1.119,0,1,1,0-2.237,1.035,1.035,0,0,1,.373.067,1.114,1.114,0,0,0,0,2.1Zm0,0" transform="translate(-319.772 -404.236)" fill="#787680"/>
    <path id="Path_236" data-name="Path 236" d="M11.884,44.736,9.114,47.5,6.082,50.534a3.725,3.725,0,0,1,0-5.273l.526-.526a3.726,3.726,0,0,1,5.277,0Zm0,0" transform="translate(-4.756 -41.215)" fill="#ff9811"/>
    <path id="Path_237" data-name="Path 237" d="M331.689,45.309a3.725,3.725,0,0,1,0,5.273l-3.032-3.032-2.771-2.767a3.681,3.681,0,0,1,1.19-.8,3.739,3.739,0,0,1,4.087.8Zm0,0" transform="translate(-310.696 -41.263)" fill="#ff9811"/>
    <path id="Path_238" data-name="Path 238" d="M224.9,257.156a.746.746,0,1,1-.746-.746A.746.746,0,0,1,224.9,257.156Zm0,0" transform="translate(-212.993 -244.067)" fill="#ff9811"/>
    <path id="Path_239" data-name="Path 239" d="M231.406,176.41h.746v3.729h-.746Zm0,0" transform="translate(-220.62 -167.796)" fill="#ee8700"/>
    <path id="Path_240" data-name="Path 240" d="M159.406,264.41h2.983v.746h-2.983Zm0,0" transform="translate(-151.976 -251.694)" fill="#ee8700"/>
    <path id="Path_241" data-name="Path 241" d="M17.731,278.979a10.469,10.469,0,0,1-2.325-6.569h.746a9.716,9.716,0,0,0,2.159,6.1Zm0,0" transform="translate(-14.688 -259.321)" fill="#ffa733"/>
    <path id="Path_242" data-name="Path 242" d="M401.669,278.98l-.58-.47a9.715,9.715,0,0,0,2.159-6.1h.746a10.468,10.468,0,0,1-2.325,6.569Zm0,0" transform="translate(-382.394 -259.322)" fill="#ffa733"/>
    <path id="Path_243" data-name="Path 243" d="M2.753,362.077A12.022,12.022,0,0,1,0,357.842l.7-.264a11.279,11.279,0,0,0,2.581,3.969Zm0,0" transform="translate(0 -340.52)" fill="#ffa733"/>
    <path id="Path_244" data-name="Path 244" d="M409.022,362.077l-.525-.53a11.287,11.287,0,0,0,2.581-3.969l.7.264A12.028,12.028,0,0,1,409.022,362.077Zm0,0" transform="translate(-389.456 -340.52)" fill="#ffa733"/>
    <g id="Group_105" data-name="Group 105" transform="translate(5.193 7.122)">
      <path id="Path_245" data-name="Path 245" d="M216.525,250.647a1.119,1.119,0,1,1,1.119-1.119A1.119,1.119,0,0,1,216.525,250.647Zm0-1.492a.373.373,0,1,0,.373.373A.373.373,0,0,0,216.525,249.156Zm0,0" transform="translate(-210.558 -243.562)" fill="#cc7400"/>
      <path id="Path_246" data-name="Path 246" d="M111.406,264.41h.746v.746h-.746Zm0,0" transform="translate(-111.406 -258.817)" fill="#cc7400"/>
      <path id="Path_247" data-name="Path 247" d="M231.406,384.41h.746v.746h-.746Zm0,0" transform="translate(-225.813 -373.223)" fill="#cc7400"/>
      <path id="Path_248" data-name="Path 248" d="M351.406,264.41h.746v.746h-.746Zm0,0" transform="translate(-340.219 -258.817)" fill="#cc7400"/>
      <path id="Path_249" data-name="Path 249" d="M231.406,144.41h.746v.746h-.746Zm0,0" transform="translate(-225.813 -144.41)" fill="#cc7400"/>
    </g>
  </g>
</svg>
