<svg xmlns="http://www.w3.org/2000/svg" width="20.303" height="20.503" viewBox="0 0 20.303 20.503">
  <g id="alarm-clock" transform="translate(-0.299 0)">
    <path id="Path_254" data-name="Path 254" d="M69.064,10.636A7.689,7.689,0,0,0,61.846,2.97V2.409H63.1a.464.464,0,0,0,.463-.463V.464A.464.464,0,0,0,63.1,0H59.623a.465.465,0,0,0-.463.463V1.946a.465.465,0,0,0,.463.463h1.3V2.97a7.677,7.677,0,0,0-4.651,13.392l-1.431,2.506a1.089,1.089,0,0,0-.1.857,1.114,1.114,0,0,0,.556.662,1.089,1.089,0,0,0,1.436-.436l1.357-2.376a7.667,7.667,0,0,0,6.578,0l1.357,2.376a1.091,1.091,0,0,0,.95.551,1.062,1.062,0,0,0,.486-.116,1.094,1.094,0,0,0,.459-1.519l-1.431-2.506a7.634,7.634,0,0,0,2.575-5.725ZM60.086.927h2.548v.556H60.086ZM55.931,19.493a.16.16,0,0,1-.218.065.149.149,0,0,1-.083-.1.191.191,0,0,1,.014-.13l1.362-2.386c.093.065.185.125.278.185Zm-1.3-8.857a6.754,6.754,0,1,1,6.754,6.754A6.761,6.761,0,0,1,54.629,10.636Zm12.5,8.695a.15.15,0,0,1,.014.13.176.176,0,0,1-.083.1.169.169,0,0,1-.218-.065l-1.353-2.367c.093-.06.185-.121.278-.185Zm0,0" transform="translate(-50.93)" fill="#646464"/>
    <path id="Path_255" data-name="Path 255" d="M6.214,17.842a.462.462,0,0,0-.139-.329A3.391,3.391,0,0,0,.3,19.936a3.324,3.324,0,0,0,1,2.367.463.463,0,0,0,.324.134.473.473,0,0,0,.329-.134L6.076,18.18a.472.472,0,0,0,.139-.338ZM1.656,21.289a2.392,2.392,0,0,1-.426-1.357,2.451,2.451,0,0,1,2.455-2.464,2.486,2.486,0,0,1,1.38.417Zm0,0" transform="translate(0 -15.771)" fill="#646464"/>
    <path id="Path_256" data-name="Path 256" d="M311.139,17.526a.464.464,0,0,0,0,.658l4.123,4.123a.455.455,0,0,0,.329.134.463.463,0,0,0,.324-.134,3.3,3.3,0,0,0,1-2.367,3.384,3.384,0,0,0-5.772-2.413Zm4.419,3.775-3.409-3.409a2.474,2.474,0,0,1,3.108.292,2.449,2.449,0,0,1,.727,1.756,2.351,2.351,0,0,1-.426,1.362Zm0,0" transform="translate(-296.308 -15.784)" fill="#646464"/>
    <path id="Path_257" data-name="Path 257" d="M99.624,103.9a5.823,5.823,0,1,0,5.823,5.823,5.823,5.823,0,0,0-5.823-5.823Zm0,10.719a4.9,4.9,0,1,1,4.9-4.9A4.9,4.9,0,0,1,99.624,114.617Zm0,0" transform="translate(-89.171 -99.085)" fill="#646464"/>
    <path id="Path_258" data-name="Path 258" d="M172.664,188.808a.463.463,0,0,0-.653.051l-2.061,2.413-1.079-1.079a.462.462,0,0,0-.653.653l1.431,1.431a.458.458,0,0,0,.329.134H170a.462.462,0,0,0,.333-.162l2.386-2.8a.452.452,0,0,0-.051-.644Zm0,0" transform="translate(-160.011 -179.955)" fill="#646464"/>
  </g>
</svg>
