<svg xmlns="http://www.w3.org/2000/svg" width="20.286" height="19.5" viewBox="0 0 20.286 19.5">
  <g id="Group_10885" data-name="Group 10885" transform="translate(-18.357 -781)">
    <g id="Icon_feather-shopping-cart" data-name="Icon feather-shopping-cart" transform="translate(18.357 781)">
      <path id="Path_474" data-name="Path 474" d="M13.571,30.786A.786.786,0,1,1,12.786,30,.786.786,0,0,1,13.571,30.786Z" transform="translate(-5 -13.571)" fill="none" stroke="#fff" stroke-linecap="round" stroke-linejoin="round" stroke-width="3"/>
      <path id="Path_475" data-name="Path 475" d="M30.071,30.786A.786.786,0,1,1,29.286,30,.786.786,0,0,1,30.071,30.786Z" transform="translate(-12.857 -13.571)" fill="none" stroke="#fff" stroke-linecap="round" stroke-linejoin="round" stroke-width="3"/>
      <path id="Path_476" data-name="Path 476" d="M1.5,1.5H4.643L6.749,12.021A1.571,1.571,0,0,0,8.32,13.286h7.637a1.571,1.571,0,0,0,1.571-1.265l1.257-6.592H5.429" fill="none" stroke="#fff" stroke-linecap="round" stroke-linejoin="round" stroke-width="3"/>
    </g>
  </g>
</svg>
