<svg xmlns="http://www.w3.org/2000/svg" width="40.346" height="40.346" viewBox="0 0 40.346 40.346">
  <g id="birthday-cake" transform="translate(0 0)">
    <path id="Path_147" data-name="Path 147" d="M98.762,283.267c.037-.024.078-.042.118-.067C98.84,283.226,98.8,283.244,98.762,283.267Zm0,0" transform="translate(-90.46 -259.395)" fill="#fc0"/>
    <path id="Path_148" data-name="Path 148" d="M231.055,281.24c.05-.02.1-.033.155-.049C231.159,281.208,231.1,281.219,231.055,281.24Zm0,0" transform="translate(-211.634 -257.556)" fill="#fc0"/>
    <path id="Path_149" data-name="Path 149" d="M235.809,280.226c.058-.01.118-.013.178-.018C235.927,280.213,235.867,280.215,235.809,280.226Zm0,0" transform="translate(-215.988 -256.654)" fill="#fc0"/>
    <path id="Path_150" data-name="Path 150" d="M373.809,280.8c.04.01.077.024.116.036A.974.974,0,0,0,373.809,280.8Zm0,0" transform="translate(-342.388 -257.198)" fill="#fc0"/>
    <path id="Path_151" data-name="Path 151" d="M354.762,283.267c.037-.024.078-.042.118-.067C354.84,283.226,354.8,283.244,354.762,283.267Zm0,0" transform="translate(-324.943 -259.395)" fill="#fc0"/>
    <path id="Path_152" data-name="Path 152" d="M103.055,281.24c.05-.02.1-.033.155-.049C103.159,281.208,103.1,281.219,103.055,281.24Zm0,0" transform="translate(-94.393 -257.556)" fill="#fc0"/>
    <path id="Path_153" data-name="Path 153" d="M369.029,280.063h-.067a1.432,1.432,0,0,1,.191.019C369.109,280.079,369.071,280.066,369.029,280.063Zm0,0" transform="translate(-337.948 -256.522)" fill="#fc0"/>
    <path id="Path_154" data-name="Path 154" d="M363.809,280.226c.058-.01.118-.013.178-.018C363.927,280.213,363.867,280.215,363.809,280.226Zm0,0" transform="translate(-333.229 -256.654)" fill="#fc0"/>
    <path id="Path_155" data-name="Path 155" d="M359.055,281.24c.05-.02.1-.033.155-.049C359.159,281.208,359.1,281.219,359.055,281.24Zm0,0" transform="translate(-328.875 -257.556)" fill="#fc0"/>
    <path id="Path_156" data-name="Path 156" d="M245.809,280.8c.04.01.077.024.116.036A.972.972,0,0,0,245.809,280.8Zm0,0" transform="translate(-225.148 -257.198)" fill="#fc0"/>
    <path id="Path_157" data-name="Path 157" d="M107.809,280.226c.058-.01.118-.013.178-.018C107.927,280.213,107.867,280.215,107.809,280.226Zm0,0" transform="translate(-98.747 -256.654)" fill="#fc0"/>
    <path id="Path_158" data-name="Path 158" d="M226.762,283.267c.037-.024.078-.042.118-.067C226.84,283.226,226.8,283.244,226.762,283.267Zm0,0" transform="translate(-207.702 -259.395)" fill="#fc0"/>
    <path id="Path_159" data-name="Path 159" d="M113.029,280.063h-.067a1.432,1.432,0,0,1,.191.019C113.109,280.079,113.071,280.066,113.029,280.063Zm0,0" transform="translate(-103.466 -256.522)" fill="#fc0"/>
    <path id="Path_160" data-name="Path 160" d="M117.809,280.8c.04.01.077.024.116.036A.973.973,0,0,0,117.809,280.8Zm0,0" transform="translate(-107.907 -257.198)" fill="#fc0"/>
    <path id="Path_161" data-name="Path 161" d="M241.029,280.063h-.067a1.433,1.433,0,0,1,.191.019C241.109,280.079,241.071,280.066,241.029,280.063Zm0,0" transform="translate(-220.707 -256.522)" fill="#fc0"/>
    <path id="Path_162" data-name="Path 162" d="M63.242,287.169a3.377,3.377,0,0,1-.982-2.38v-2.576a2.136,2.136,0,0,0-1.412-2.029c-.039-.012-.076-.026-.116-.036a2.139,2.139,0,0,0-.218-.039c-.063-.008-.126-.016-.191-.019a1.973,1.973,0,0,0-.253.009c-.06.006-.121.008-.178.018a2.1,2.1,0,0,0-.244.067c-.052.017-.105.029-.155.049a1.954,1.954,0,0,0-.243.124,1.022,1.022,0,0,0-.118.067,2.009,2.009,0,0,0-.905,1.674v1.345a3.362,3.362,0,1,1-6.724,0v-1.231a2.136,2.136,0,0,0-1.412-2.029c-.039-.012-.076-.026-.116-.036a2.131,2.131,0,0,0-.218-.039c-.063-.008-.126-.016-.191-.019a1.973,1.973,0,0,0-.253.009c-.06.006-.121.008-.178.018a2.1,2.1,0,0,0-.244.067c-.052.017-.105.029-.155.049a1.954,1.954,0,0,0-.243.124,1.018,1.018,0,0,0-.118.067,2.009,2.009,0,0,0-.905,1.674v4.035a3.362,3.362,0,0,1-6.724,0v-3.921a2.136,2.136,0,0,0-1.412-2.029c-.039-.012-.077-.026-.116-.036a2.13,2.13,0,0,0-.218-.039c-.063-.008-.126-.016-.191-.019a1.973,1.973,0,0,0-.253.009c-.06.006-.12.008-.178.018a2.1,2.1,0,0,0-.244.067c-.052.017-.105.029-.155.049a1.954,1.954,0,0,0-.243.124,1.018,1.018,0,0,0-.118.067,2.009,2.009,0,0,0-.905,1.674v2.69a3.352,3.352,0,0,1-3.362,3.362A3.431,3.431,0,0,1,32,287.874v8.345H66.967v-8.345a3.431,3.431,0,0,1-1.345.276,3.377,3.377,0,0,1-2.38-.982Zm0,0" transform="translate(-29.31 -256.546)" fill="#fc0"/>
    <path id="Path_163" data-name="Path 163" d="M44.312,232H10.69A2.69,2.69,0,0,0,8,234.69v6.052a3.377,3.377,0,0,0,.982,2.38,3.362,3.362,0,0,0,5.743-2.38v-2.69a2.007,2.007,0,0,1,.9-1.68c.037-.024.078-.042.118-.067a2,2,0,0,1,.243-.124c.05-.021.1-.032.155-.049a2.1,2.1,0,0,1,.244-.067c.058-.01.118-.013.178-.018s.114-.011.174-.011c.027,0,.053.007.079.008a.411.411,0,0,1,.067,0,.976.976,0,0,1,.122.021,2.13,2.13,0,0,1,.218.039c.04.011.078.024.116.036a2.007,2.007,0,0,1,1.414,1.913v4.035a3.362,3.362,0,1,0,6.724,0v-4.035a2.007,2.007,0,0,1,.9-1.68c.037-.024.078-.042.118-.067a2,2,0,0,1,.243-.124c.05-.021.1-.032.155-.049a2.1,2.1,0,0,1,.244-.067c.058-.01.118-.013.178-.018s.114-.011.174-.011c.027,0,.053.007.079.008a.415.415,0,0,1,.067,0,.976.976,0,0,1,.122.021,2.139,2.139,0,0,1,.218.039c.04.011.078.024.116.036a2.007,2.007,0,0,1,1.414,1.913V239.4a3.362,3.362,0,1,0,6.724,0v-1.345a2.007,2.007,0,0,1,.9-1.68c.037-.024.078-.042.118-.067a2,2,0,0,1,.243-.124c.05-.021.1-.032.155-.049a2.1,2.1,0,0,1,.244-.067c.058-.01.118-.013.178-.018s.114-.011.174-.011c.027,0,.053.007.079.008a.415.415,0,0,1,.067,0,.976.976,0,0,1,.122.021,2.139,2.139,0,0,1,.218.039c.04.011.078.024.116.036a2.007,2.007,0,0,1,1.414,1.913v2.69a3.352,3.352,0,0,0,3.362,3.362,3.431,3.431,0,0,0,1.345-.276A3.381,3.381,0,0,0,47,240.742V234.69a2.69,2.69,0,0,0-2.69-2.69Zm0,0" transform="translate(-7.328 -212.499)" fill="#ff72a8"/>
    <path id="Path_164" data-name="Path 164" d="M13.743,338.38a3.377,3.377,0,0,0,.982-2.38v1.345a3.362,3.362,0,1,1-6.724,0V336a3.377,3.377,0,0,0,.982,2.38,3.335,3.335,0,0,0,2.38.982A3.377,3.377,0,0,0,13.743,338.38Zm0,0" transform="translate(-7.328 -307.757)" fill="#e52b4a"/>
    <path id="Path_165" data-name="Path 165" d="M141.742,354.38a3.377,3.377,0,0,0,.982-2.38v1.345a3.362,3.362,0,0,1-6.724,0V352a3.366,3.366,0,0,0,5.743,2.38Zm0,0" transform="translate(-124.568 -322.412)" fill="#e52b4a"/>
    <path id="Path_166" data-name="Path 166" d="M269.742,322.38a3.377,3.377,0,0,0,.982-2.38v1.345a3.362,3.362,0,1,1-6.724,0V320a3.366,3.366,0,0,0,5.743,2.38Zm0,0" transform="translate(-241.809 -293.102)" fill="#e52b4a"/>
    <path id="Path_167" data-name="Path 167" d="M398.724,336v1.345a3.381,3.381,0,0,1-2.017,3.086,3.43,3.43,0,0,1-1.345.276A3.352,3.352,0,0,1,392,337.345V336a3.352,3.352,0,0,0,3.362,3.362,3.431,3.431,0,0,0,1.345-.276A3.381,3.381,0,0,0,398.724,336Zm0,0" transform="translate(-359.05 -307.758)" fill="#e52b4a"/>
    <path id="Path_168" data-name="Path 168" d="M39.674,465.345h-39a.672.672,0,1,1,0-1.345h39a.672.672,0,1,1,0,1.345Zm0,0" transform="translate(0 -424.999)" fill="#072039"/>
    <g id="Group_103" data-name="Group 103" transform="translate(7.989 23.535)">
      <path id="Path_169" data-name="Path 169" d="M351.039,284.27a2.025,2.025,0,0,1,.313-.254A2.025,2.025,0,0,0,351.039,284.27Zm0,0" transform="translate(-329.521 -283.678)" fill="#fc0"/>
      <path id="Path_170" data-name="Path 170" d="M120.611,283.244v-.114a2.007,2.007,0,0,0-1.412-1.915,2.136,2.136,0,0,1,1.412,2.029Zm0,0" transform="translate(-117.168 -281.113)" fill="#fc0"/>
      <path id="Path_171" data-name="Path 171" d="M243.2,280.32a2.131,2.131,0,0,1,.218.039A2.131,2.131,0,0,0,243.2,280.32Zm0,0" transform="translate(-230.745 -280.293)" fill="#fc0"/>
      <path id="Path_172" data-name="Path 172" d="M248.611,283.244v-.114a2.007,2.007,0,0,0-1.412-1.915,2.136,2.136,0,0,1,1.412,2.029Zm0,0" transform="translate(-234.409 -281.113)" fill="#fc0"/>
      <path id="Path_173" data-name="Path 173" d="M376.611,283.244v-.114a2.007,2.007,0,0,0-1.412-1.915,2.136,2.136,0,0,1,1.412,2.029Zm0,0" transform="translate(-351.65 -281.113)" fill="#fc0"/>
      <path id="Path_174" data-name="Path 174" d="M232.9,280.458a2.169,2.169,0,0,1,.244-.067A2.169,2.169,0,0,0,232.9,280.458Zm0,0" transform="translate(-221.314 -280.357)" fill="#fc0"/>
      <path id="Path_175" data-name="Path 175" d="M110.1,280c-.06,0-.116.013-.174.017a1.979,1.979,0,0,1,.253-.009C110.156,280.007,110.131,280,110.1,280Zm0,0" transform="translate(-108.678 -280)" fill="#fc0"/>
      <path id="Path_176" data-name="Path 176" d="M115.2,280.32a2.13,2.13,0,0,1,.218.039A2.13,2.13,0,0,0,115.2,280.32Zm0,0" transform="translate(-113.504 -280.293)" fill="#fc0"/>
      <path id="Path_177" data-name="Path 177" d="M366.1,280c-.06,0-.116.013-.174.017a1.978,1.978,0,0,1,.253-.009C366.156,280.007,366.131,280,366.1,280Zm0,0" transform="translate(-343.16 -280)" fill="#fc0"/>
      <path id="Path_178" data-name="Path 178" d="M100.16,281.9a1.946,1.946,0,0,1,.243-.124A1.946,1.946,0,0,0,100.16,281.9Zm0,0" transform="translate(-99.73 -281.628)" fill="#fc0"/>
      <path id="Path_179" data-name="Path 179" d="M356.16,281.9a1.945,1.945,0,0,1,.243-.124A1.945,1.945,0,0,0,356.16,281.9Zm0,0" transform="translate(-334.212 -281.628)" fill="#fc0"/>
      <path id="Path_180" data-name="Path 180" d="M360.9,280.458a2.168,2.168,0,0,1,.244-.067A2.168,2.168,0,0,0,360.9,280.458Zm0,0" transform="translate(-338.555 -280.357)" fill="#fc0"/>
      <path id="Path_181" data-name="Path 181" d="M95.039,284.27a2.024,2.024,0,0,1,.313-.254A2.024,2.024,0,0,0,95.039,284.27Zm0,0" transform="translate(-95.039 -283.678)" fill="#fc0"/>
      <path id="Path_182" data-name="Path 182" d="M104.9,280.458a2.169,2.169,0,0,1,.244-.067A2.168,2.168,0,0,0,104.9,280.458Zm0,0" transform="translate(-104.073 -280.357)" fill="#fc0"/>
      <path id="Path_183" data-name="Path 183" d="M238.1,280c-.06,0-.116.013-.174.017a1.978,1.978,0,0,1,.253-.009C238.156,280.007,238.131,280,238.1,280Zm0,0" transform="translate(-225.919 -280)" fill="#fc0"/>
      <path id="Path_184" data-name="Path 184" d="M223.039,284.27a2.023,2.023,0,0,1,.313-.254A2.023,2.023,0,0,0,223.039,284.27Zm0,0" transform="translate(-212.28 -283.678)" fill="#fc0"/>
      <path id="Path_185" data-name="Path 185" d="M371.2,280.32a2.13,2.13,0,0,1,.218.039A2.13,2.13,0,0,0,371.2,280.32Zm0,0" transform="translate(-347.986 -280.293)" fill="#fc0"/>
      <path id="Path_186" data-name="Path 186" d="M228.16,281.9a1.945,1.945,0,0,1,.243-.124A1.945,1.945,0,0,0,228.16,281.9Zm0,0" transform="translate(-216.971 -281.628)" fill="#fc0"/>
    </g>
    <path id="Path_187" data-name="Path 187" d="M216,128h4.035v8.742H216Zm0,0" transform="translate(-197.844 -117.241)" fill="red"/>
    <path id="Path_188" data-name="Path 188" d="M208,5.38a2.69,2.69,0,0,0,5.38,0c0-1.485-2.69-5.38-2.69-5.38S208,3.894,208,5.38Zm0,0" transform="translate(-190.517 0)" fill="#fff"/>
    <path id="Path_189" data-name="Path 189" d="M352,144h4.035v7.4H352Zm0,0" transform="translate(-322.413 -131.896)" fill="red"/>
    <path id="Path_190" data-name="Path 190" d="M344,21.38a2.69,2.69,0,0,0,5.38,0c0-1.485-2.69-5.38-2.69-5.38S344,19.894,344,21.38Zm0,0" transform="translate(-315.085 -14.655)" fill="#fff"/>
    <path id="Path_191" data-name="Path 191" d="M80,144h4.035v7.4H80Zm0,0" transform="translate(-73.276 -131.896)" fill="red"/>
    <path id="Path_192" data-name="Path 192" d="M77.379,21.38a2.694,2.694,0,0,1-2.347,2.67h-.007a2.742,2.742,0,0,1-.336.02A2.69,2.69,0,0,1,72,21.38C72,19.893,74.69,16,74.69,16s.135.2.336.5C75.752,17.607,77.379,20.223,77.379,21.38Zm0,0" transform="translate(-65.948 -14.655)" fill="#fff"/>
    <path id="Path_193" data-name="Path 193" d="M75.026,24.05a2.742,2.742,0,0,1-.336.02A2.69,2.69,0,0,1,72,21.38C72,19.894,74.69,16,74.69,16s.135.2.336.5c-.726,1.1-2.354,3.718-2.354,4.875a2.7,2.7,0,0,0,2.354,2.67Zm0,0" transform="translate(-65.948 -14.655)" fill="#e5553c"/>
    <path id="Path_194" data-name="Path 194" d="M211.026,8.049a2.741,2.741,0,0,1-.336.02A2.69,2.69,0,0,1,208,5.38C208,3.893,210.69,0,210.69,0s.135.2.336.5c-.726,1.1-2.354,3.718-2.354,4.875a2.7,2.7,0,0,0,2.354,2.67Zm0,0" transform="translate(-190.517)" fill="#e5553c"/>
    <path id="Path_195" data-name="Path 195" d="M347.026,24.05a2.742,2.742,0,0,1-.336.02A2.69,2.69,0,0,1,344,21.38c0-1.486,2.69-5.38,2.69-5.38s.135.2.336.5c-.726,1.1-2.354,3.718-2.354,4.875a2.7,2.7,0,0,0,2.354,2.67Zm0,0" transform="translate(-315.085 -14.655)" fill="#e5553c"/>
    <path id="Path_196" data-name="Path 196" d="M80,144h4.035v1.345H80Zm0,0" transform="translate(-73.276 -131.896)" fill="#e5880f"/>
    <path id="Path_197" data-name="Path 197" d="M216,128h4.035v1.345H216Zm0,0" transform="translate(-197.844 -117.241)" fill="#e5880f"/>
    <path id="Path_198" data-name="Path 198" d="M352,144h4.035v1.345H352Zm0,0" transform="translate(-322.413 -131.896)" fill="#e5880f"/>
  </g>
</svg>
