<svg xmlns="http://www.w3.org/2000/svg" width="17.496" height="17.332" viewBox="0 0 17.496 17.332">
  <g id="user-silhouette" transform="translate(0.001 -1.916)">
    <g id="Group_132" data-name="Group 132" transform="translate(-0.001 1.916)">
      <path id="Path_304" data-name="Path 304" d="M116.766,11.1c2.166,0,3.923-2.056,3.923-4.591,0-3.516-1.756-4.591-3.923-4.591s-3.923,1.075-3.923,4.591C112.843,9.043,114.6,11.1,116.766,11.1Z" transform="translate(-108.018 -1.916)" fill="#f90"/>
      <path id="Path_305" data-name="Path 305" d="M17.41,227.958,15.431,223.5a.993.993,0,0,0-.447-.476l-3.071-1.6a.2.2,0,0,0-.211.018,4.846,4.846,0,0,1-5.907,0,.2.2,0,0,0-.211-.018l-3.071,1.6a.993.993,0,0,0-.447.476L.085,227.958a.99.99,0,0,0,.9,1.391H16.505a.99.99,0,0,0,.9-1.391Z" transform="translate(0.001 -212.017)" fill="#f90"/>
    </g>
  </g>
</svg>
