<svg xmlns="http://www.w3.org/2000/svg" xmlns:xlink="http://www.w3.org/1999/xlink" width="83" height="68" viewBox="0 0 83 68">
  <defs>
    <clipPath id="clip-path">
      <rect id="Rectangle_613" data-name="Rectangle 613" width="83" height="68" transform="translate(0 304.927)" fill="#333"/>
    </clipPath>
  </defs>
  <g id="Mask_Group_5" data-name="Mask Group 5" transform="translate(0 -304.927)" clip-path="url(#clip-path)">
    <g id="camera" transform="translate(0 307.802)">
      <g id="Group_135" data-name="Group 135" transform="translate(0 0)">
        <g id="Group_134" data-name="Group 134">
          <path id="Path_310" data-name="Path 310" d="M133.967,128.125a15.217,15.217,0,1,0,15.217,15.217A15.217,15.217,0,0,0,133.967,128.125Zm0,27.667a12.45,12.45,0,1,1,12.45-12.45A12.45,12.45,0,0,1,133.967,155.792Z" transform="translate(-92.467 -110.142)" fill="#333"/>
          <path id="Path_311" data-name="Path 311" d="M76.083,56.558V53.792A1.383,1.383,0,0,0,74.7,52.408H66.4a1.383,1.383,0,0,0-1.383,1.383v2.767H61.67l-3.543-6.2a6.931,6.931,0,0,0-6.005-3.486H30.877a6.931,6.931,0,0,0-6.005,3.486l-3.543,6.2h-.58v-4.15a1.383,1.383,0,0,0-1.383-1.383H8.3a1.383,1.383,0,0,0-1.383,1.383v4.15A6.925,6.925,0,0,0,0,63.475v38.733a6.925,6.925,0,0,0,6.917,6.917H76.083A6.925,6.925,0,0,0,83,102.208V63.475A6.925,6.925,0,0,0,76.083,56.558Zm-8.3-1.383h5.533v1.383H67.783Zm-58.1-1.383h8.3v2.767h-8.3Zm70.55,48.417a4.15,4.15,0,0,1-4.15,4.15H6.917a4.15,4.15,0,0,1-4.15-4.15V63.475a4.15,4.15,0,0,1,4.15-4.15H22.133a1.383,1.383,0,0,0,1.2-.692l3.94-6.895a4.162,4.162,0,0,1,3.6-2.1H52.123a4.162,4.162,0,0,1,3.6,2.092l3.947,6.9a1.383,1.383,0,0,0,1.2.692H76.083a4.15,4.15,0,0,1,4.15,4.15Z" transform="translate(0 -46.875)" fill="#333"/>
          <path id="Path_312" data-name="Path 312" d="M114.5,103.125a20.75,20.75,0,1,0,20.75,20.75A20.75,20.75,0,0,0,114.5,103.125Zm0,38.733a17.983,17.983,0,1,1,17.983-17.983A17.983,17.983,0,0,1,114.5,141.858Z" transform="translate(-73 -90.675)" fill="#333"/>
          <path id="Path_313" data-name="Path 313" d="M57.633,121.875a1.383,1.383,0,0,0-1.383,1.383v33.2a1.383,1.383,0,0,0,2.767,0v-33.2A1.383,1.383,0,0,0,57.633,121.875Z" transform="translate(-43.8 -105.275)" fill="#333"/>
          <path id="Path_314" data-name="Path 314" d="M297.9,115.625a4.15,4.15,0,1,0,4.15,4.15A4.15,4.15,0,0,0,297.9,115.625Zm0,5.533a1.383,1.383,0,1,1,1.383-1.383A1.383,1.383,0,0,1,297.9,121.158Z" transform="translate(-228.733 -100.408)" fill="#333"/>
        </g>
      </g>
    </g>
  </g>
</svg>
