<svg xmlns="http://www.w3.org/2000/svg" width="26" height="21.233" viewBox="0 0 26 21.233">
  <g id="photo-camera" transform="translate(0 -5.5)">
    <path id="Path_210" data-name="Path 210" d="M23.2,20.5a5.2,5.2,0,1,0,5.2,5.2A5.206,5.206,0,0,0,23.2,20.5Z" transform="translate(-10.2 -8.5)" fill="#ff8828"/>
    <path id="Path_211" data-name="Path 211" d="M23.92,9.833H20.227L18.493,5.5H7.507L5.773,9.833H5.2V7.667H2.6V9.833H2.08A2.081,2.081,0,0,0,0,11.913V24.639a2.1,2.1,0,0,0,2.094,2.094H23.906A2.1,2.1,0,0,0,26,24.639V11.913A2.081,2.081,0,0,0,23.92,9.833Zm-19.587,0H3.467v-1.3h.867ZM13,25a7.8,7.8,0,1,1,7.8-7.8A7.809,7.809,0,0,1,13,25Zm9.533-9.967A1.733,1.733,0,1,1,24.267,13.3,1.735,1.735,0,0,1,22.533,15.033Z" fill="#ff8828"/>
  </g>
</svg>
