<svg xmlns="http://www.w3.org/2000/svg" width="24.526" height="21.556" viewBox="0 0 24.526 21.556">
  <g id="supermarket" transform="translate(0 0)">
    <path id="Path_484" data-name="Path 484" d="M7.9,14.371H20.933a.719.719,0,0,0,.691-.521L24.5,3.79a.718.718,0,0,0-.691-.916H6.245L5.731.563A.719.719,0,0,0,5.03,0H.718a.719.719,0,0,0,0,1.437H4.453L7.048,13.112A2.155,2.155,0,0,0,7.9,17.245h13.03a.719.719,0,1,0,0-1.437H7.9a.718.718,0,0,1,0-1.437ZM22.855,4.311l-2.464,8.622H8.48L6.564,4.311Zm0,0" transform="translate(0)" fill="#fff"/>
    <path id="Path_485" data-name="Path 485" d="M150,362.156A2.156,2.156,0,1,0,152.156,360,2.158,2.158,0,0,0,150,362.156Zm2.156-.718a.719.719,0,1,1-.718.718A.719.719,0,0,1,152.156,361.437Zm0,0" transform="translate(-142.815 -342.755)" fill="#fff"/>
    <path id="Path_486" data-name="Path 486" d="M362,362.156A2.156,2.156,0,1,0,364.156,360,2.158,2.158,0,0,0,362,362.156Zm2.156-.718a.719.719,0,1,1-.719.718A.719.719,0,0,1,364.156,361.437Zm0,0" transform="translate(-344.659 -342.755)" fill="#fff"/>
  </g>
</svg>
