<svg xmlns="http://www.w3.org/2000/svg" xmlns:xlink="http://www.w3.org/1999/xlink" width="36" height="17" viewBox="0 0 36 17">
  <defs>
    <clipPath id="clip-path">
      <rect id="Rectangle_581" data-name="Rectangle 581" width="36" height="17" transform="translate(-0.195 52.5)" fill="#f90"/>
    </clipPath>
  </defs>
  <g id="Mask_Group_4" data-name="Mask Group 4" transform="translate(0.195 -52.5)" clip-path="url(#clip-path)">
    <g id="atm" transform="translate(8.208 52.12)">
      <path id="Path_301" data-name="Path 301" d="M18.628,0H.316A.316.316,0,0,0,0,.316V5.368a.316.316,0,0,0,.316.316H3.157v9.788A1.263,1.263,0,0,0,4.42,16.734h10.1a1.263,1.263,0,0,0,1.263-1.263V5.683h2.842a.316.316,0,0,0,.316-.316V.316A.316.316,0,0,0,18.628,0ZM3.789,15.471V1.894H5.368V16.1H4.42A.632.632,0,0,1,3.789,15.471ZM3.157,3.789H1.894V1.894H3.157ZM6,16.1V1.894H7.578V16.1Zm8.525,0H8.209V1.894h3.473V3.789h.631V1.894h2.842V15.471A.632.632,0,0,1,14.524,16.1ZM15.787,1.894H17.05V3.789H15.787Zm2.526,3.157H15.787V4.42h1.579a.316.316,0,0,0,.316-.316V1.579a.316.316,0,0,0-.316-.316H1.579a.316.316,0,0,0-.316.316V4.1a.316.316,0,0,0,.316.316H3.157v.631H.631V.631H18.313Zm0,0" transform="translate(0 0)" fill="#f90"/>
      <path id="Path_302" data-name="Path 302" d="M123.566,46.755h.631v2.21h-.631Zm0,0" transform="translate(-111.884 -42.334)" fill="#f90"/>
      <path id="Path_303" data-name="Path 303" d="M112.26,90.17a2.055,2.055,0,0,0-2.052,2.052,2.026,2.026,0,0,0,.439,1.263,2.052,2.052,0,1,0,3.227,0,2.026,2.026,0,0,0,.439-1.263A2.055,2.055,0,0,0,112.26,90.17Zm0,.631a1.422,1.422,0,0,1,1.421,1.421,1.4,1.4,0,0,1-.268.829,2.059,2.059,0,0,0-.241-.139l-.05-.024a1.832,1.832,0,0,0-.52-.161l-.066-.01a1.859,1.859,0,0,0-.55,0l-.066.01a1.832,1.832,0,0,0-.52.161l-.05.024a2.006,2.006,0,0,0-.241.139,1.4,1.4,0,0,1-.27-.829A1.422,1.422,0,0,1,112.26,90.8Zm0,5.368a1.415,1.415,0,0,1-.919-2.494,1.314,1.314,0,0,1,.158-.122l.007,0a1.47,1.47,0,0,1,1.506,0l.007,0a1.3,1.3,0,0,1,.158.122,1.414,1.414,0,0,1-.917,2.494Zm0,0" transform="translate(-99.788 -81.645)" fill="#f90"/>
    </g>
  </g>
</svg>
