<svg xmlns="http://www.w3.org/2000/svg" width="16.184" height="18.999" viewBox="0 0 16.184 18.999">
  <g id="delete" transform="translate(0.003 0.001)">
    <path id="Path_222" data-name="Path 222" d="M222.7,154.7a.3.3,0,0,0-.3.3v5.753a.3.3,0,0,0,.609,0v-5.753A.3.3,0,0,0,222.7,154.7Zm0,0" transform="translate(-211.802 -143.995)" fill="#646464"/>
    <path id="Path_223" data-name="Path 223" d="M104.7,154.7a.3.3,0,0,0-.3.3v5.753a.3.3,0,0,0,.609,0v-5.753A.3.3,0,0,0,104.7,154.7Zm0,0" transform="translate(-99.426 -143.995)" fill="#646464"/>
    <path id="Path_224" data-name="Path 224" d="M1.322,5.655V16.617a2.393,2.393,0,0,0,.684,1.693A2.352,2.352,0,0,0,3.674,19H12.5a2.352,2.352,0,0,0,1.667-.687,2.393,2.393,0,0,0,.684-1.693V5.655a1.7,1.7,0,0,0,1.31-1.863A1.757,1.757,0,0,0,14.4,2.312H12.009V1.756A1.708,1.708,0,0,0,11.47.509,1.881,1.881,0,0,0,10.16,0H6.017a1.881,1.881,0,0,0-1.31.51,1.708,1.708,0,0,0-.538,1.247v.556H1.779A1.757,1.757,0,0,0,.012,3.792a1.7,1.7,0,0,0,1.31,1.863ZM12.5,18.107H3.674a1.438,1.438,0,0,1-1.419-1.491V5.694H13.922V16.617A1.438,1.438,0,0,1,12.5,18.107ZM5.1,1.756a.836.836,0,0,1,.265-.618.922.922,0,0,1,.65-.249H10.16a.922.922,0,0,1,.65.249.836.836,0,0,1,.265.618v.556H5.1ZM1.779,3.2H14.4a.8.8,0,1,1,0,1.6H1.779a.8.8,0,1,1,0-1.6Zm0,0" transform="translate(0)" fill="#646464"/>
    <path id="Path_225" data-name="Path 225" d="M163.7,154.7a.3.3,0,0,0-.3.3v5.753a.3.3,0,0,0,.609,0v-5.753A.3.3,0,0,0,163.7,154.7Zm0,0" transform="translate(-155.614 -143.995)" fill="#646464"/>
  </g>
</svg>
