<svg xmlns="http://www.w3.org/2000/svg" width="16.985" height="16.985" viewBox="0 0 16.985 16.985">
  <g id="discount" transform="translate(-0.01 0)">
    <path id="Path_262" data-name="Path 262" d="M16.215,8.493l.745-1.944a.531.531,0,0,0-.161-.6l-1.616-1.31L14.856,2.58a.531.531,0,0,0-.442-.441l-2.056-.327L11.049.2a.532.532,0,0,0-.6-.161L8.5.781,6.559.036a.529.529,0,0,0-.6.161L4.647,1.814l-2.056.327a.532.532,0,0,0-.441.441L1.824,4.637.207,5.947a.531.531,0,0,0-.161.6L.791,8.493.046,10.436a.529.529,0,0,0,.161.6l1.617,1.309L2.151,14.4a.531.531,0,0,0,.441.442l2.056.327,1.31,1.616a.528.528,0,0,0,.6.161L8.5,16.2l1.944.745a.531.531,0,0,0,.6-.162l1.309-1.616,2.056-.327a.532.532,0,0,0,.442-.442l.327-2.056L16.8,11.038a.53.53,0,0,0,.161-.6Z" transform="translate(0 0)" fill="#f44336"/>
    <g id="Group_106" data-name="Group 106" transform="translate(5.318 4.246)">
      <path id="Path_263" data-name="Path 263" d="M161.614,131.22a1.592,1.592,0,1,1,1.592-1.592A1.594,1.594,0,0,1,161.614,131.22Zm0-2.123a.531.531,0,1,0,.531.531A.531.531,0,0,0,161.614,129.1Z" transform="translate(-160.022 -128.034)" fill="#fafafa"/>
      <path id="Path_264" data-name="Path 264" d="M257.614,291.22a1.592,1.592,0,1,1,1.592-1.592A1.594,1.594,0,0,1,257.614,291.22Zm0-2.123a.531.531,0,1,0,.531.531A.532.532,0,0,0,257.614,289.1Z" transform="translate(-252.837 -282.727)" fill="#fafafa"/>
      <path id="Path_265" data-name="Path 265" d="M160.567,136.51a.531.531,0,0,1-.431-.84l5.308-7.431a.531.531,0,0,1,.864.617L161,136.287A.533.533,0,0,1,160.567,136.51Z" transform="translate(-160.036 -128.017)" fill="#fafafa"/>
    </g>
  </g>
</svg>
