<svg xmlns="http://www.w3.org/2000/svg" width="28.5" height="19" viewBox="0 0 28.5 19">
  <path id="Icon_awesome-eye" data-name="Icon awesome-eye" d="M28.328,13.278A15.87,15.87,0,0,0,14.25,4.5,15.872,15.872,0,0,0,.172,13.278a1.6,1.6,0,0,0,0,1.444A15.87,15.87,0,0,0,14.25,23.5a15.872,15.872,0,0,0,14.078-8.778A1.6,1.6,0,0,0,28.328,13.278ZM14.25,21.125A7.125,7.125,0,1,1,21.375,14,7.125,7.125,0,0,1,14.25,21.125Zm0-11.875A4.716,4.716,0,0,0,13,9.438a2.368,2.368,0,0,1-3.31,3.31,4.739,4.739,0,1,0,4.562-3.5Z" transform="translate(0 -4.5)" fill="#b0b1a1"/>
</svg>
