<svg data-name="Group 10806" height="150.076" id="Group_10806" viewBox="0 0 127.973 150.076"
    width="127.973" xmlns="http://www.w3.org/2000/svg">
    <path d="M214.493,68.689s.083,68.042,1.63,70.558,57.353,28.1,59.371,27.494l-.345-72.8Z" data-name="Path 440"
        fill="#e54242"
        id="Path_440" transform="translate(-208.929 -16.676)" />
    <path d="M232.884,147.871s4.917,7.393,15.771,7.393V86.605l-15.771-7.192Z" data-name="Path 441"
        fill="#ffae1f"
        id="Path_441" transform="translate(-206.167 -15.065)" />
    <path style="mix-blend-mode: multiply;isolation: isolate" d="M248.655,98.07V86.605l-15.771-7.192V93.574C238.09,95.28,243.335,96.818,248.655,98.07Z"
        data-name="Path 442"
        fill="#ffae1f" id="Path_442" opacity="0.2"
        transform="translate(-206.167 -15.065)" />
    <path d="M266.735,94.579l.912,72.517s54.166-26.267,54.686-29.046,1.944-71.726,1.944-71.726Z" data-name="Path 443"
        fill="#c13838"
        id="Path_443" transform="translate(-201.083 -17.031)" />
    <path d="M288.932,153.195s9.522-1.108,14.278-7.351l1.641-68.057-16.16,4.919Z" data-name="Path 444"
        fill="#ef9926"
        id="Path_444" transform="translate(-197.785 -15.31)" />
    <path style="mix-blend-mode: multiply;isolation: isolate" d="M304.379,97.4l.473-19.613-16.16,4.919.069,20.33C294.016,101.284,299.235,99.434,304.379,97.4Z"
        data-name="Path 445"
        fill="#ef9926" id="Path_445" opacity="0.17"
        transform="translate(-197.785 -15.31)" />
    <path d="M209.823,60.369s-.459,15.421.144,17.494,67.435,29.625,68.894,30.19c0,0-.423-18.7-.449-19.436C278.381,87.726,209.823,60.369,209.823,60.369Z" data-name="Path 446"
        fill="#ef4b4b"
        id="Path_446" transform="translate(-209.656 -17.926)" />
    <path d="M269.434,88.253l.449,19.436s57.168-23.226,58-26.022c.416-1.4,1.706-18.928-.436-18.871Z" data-name="Path 447"
        fill="#d33c3c"
        id="Path_447" transform="translate(-200.677 -17.561)" />
    <path d="M278.39,91.31,336.4,65.853S275.5,42.375,272.593,42.442c-2.863.067-62.792,20.619-62.792,20.619Z" data-name="Path 448"
        fill="#e54242"
        id="Path_448" transform="translate(-209.634 -20.618)" />
    <path d="M234.582,52.522l67.1,26.067,1.271,19.692s8.866.939,13.361-5.811l-1.136-19.8L247.527,48.2S238.066,48.27,234.582,52.522Z" data-name="Path 449"
        fill="#ffae1f"
        id="Path_449" transform="translate(-205.912 -19.753)" />
    <path d="M290.971,48.818s9.509-.121,14.2,5.309L246.635,78.5l-.263,19s-12.99-1.422-16.8-7.146l.5-18.679Z" data-name="Path 450"
        fill="#ffc91f"
        id="Path_450" transform="translate(-206.665 -19.661)" />
    <path d="M308.956,30.379C284.65,4.458,262.568,60.464,267.891,65.9,275.14,73.295,334.668,57.8,308.956,30.379ZM269.519,64.5c-.956-1.291,18.89-49.481,34.261-29.275C321.715,58.8,271.013,66.521,269.519,64.5Z" data-name="Path 451"
        fill="#ffe424"
        id="Path_451" transform="translate(-201.029 -23.453)" />
    <path style="mix-blend-mode: multiply;isolation: isolate" d="M311.524,32.229c-.056.519-.113,1.039-.185,1.557-.615,4.395-2.221,7.969-3.965,11.684a11.575,11.575,0,0,1-2.19,4.742,3.029,3.029,0,0,1-1,1.192c-7.891,8.584-27.281,12.181-33.074,12.1a34.232,34.232,0,0,1-3.723.326,2.249,2.249,0,0,0,.459.767C274.812,71.7,330.045,57.672,311.524,32.229Z"
        data-name="Path 452"
        fill="#ffbb24" id="Path_452" opacity="0.18"
        transform="translate(-200.985 -22.152)" />
    <path d="M270.486,62.251c3.7-1.629,3.887-33.647-13.242-25.661C239.122,45.039,265.443,64.468,270.486,62.251ZM258.839,40.008c11.587-6.933,11.847,20.784,11.119,21.233C268.82,61.941,245.318,48.1,258.839,40.008Z" data-name="Path 453"
        fill="#ffe424"
        id="Path_453" transform="translate(-203.452 -21.689)" />
    <path style="mix-blend-mode: multiply;isolation: isolate" d="M255.329,37.327c-.075.267-.15.535-.217.805a21.138,21.138,0,0,0-.355,6.553,6.161,6.161,0,0,0,.143,2.774,1.619,1.619,0,0,0,.258.787c2.2,5.8,11.058,11.412,13.933,12.518a18.261,18.261,0,0,0,1.772.9,1.2,1.2,0,0,1-.377.289C265.639,64.079,241.15,46.221,255.329,37.327Z"
        data-name="Path 454"
        fill="#ffbb24" id="Path_454" opacity="0.18"
        transform="translate(-203.451 -21.386)" />
    <path d="M274.309,65.8c5.323-5.432-16.758-61.439-41.064-35.517C207.532,57.7,267.06,73.2,274.309,65.8Zm-35.888-30.67c15.371-20.205,35.217,27.985,34.261,29.276C271.187,66.424,220.486,58.706,238.421,35.129Z" data-name="Path 455"
        fill="#ffe424"
        id="Path_455" transform="translate(-207.075 -23.468)" />
    <path style="mix-blend-mode: multiply;isolation: isolate" d="M230.63,32.132c.056.519.113,1.037.185,1.557.615,4.394,2.221,7.969,3.964,11.684a11.59,11.59,0,0,0,2.19,4.742,3.022,3.022,0,0,0,1,1.192c7.891,8.584,27.281,12.181,33.074,12.1a34.5,34.5,0,0,0,3.722.326,2.231,2.231,0,0,1-.458.766C267.341,71.607,212.109,57.574,230.63,32.132Z"
        data-name="Path 456"
        fill="#ffbb24" id="Path_456" opacity="0.18"
        transform="translate(-207.073 -22.167)" />
    <path d="M283.045,46.693c-10.4-8.574-15.995,13.57-13.728,15.356C272.4,64.48,294.05,55.764,283.045,46.693ZM269.861,61.445c-.422-.439,4.708-19.535,11.471-12.677C289.225,56.769,270.522,62.133,269.861,61.445Z" data-name="Path 457"
        fill="#ffe424"
        id="Path_457" transform="translate(-200.77 -20.275)" />
    <path style="mix-blend-mode: multiply;isolation: isolate" d="M284.143,47.357c0,.2.008.4.006.595a15.061,15.061,0,0,1-.925,4.588,4.392,4.392,0,0,1-.595,1.891,1.146,1.146,0,0,1-.317.5c-2.553,3.613-9.674,5.906-11.858,6.157a12.983,12.983,0,0,1-1.385.3.843.843,0,0,0,.211.267C272.245,63.991,292.347,56.032,284.143,47.357Z"
        data-name="Path 458"
        fill="#ffbb24" id="Path_458" opacity="0.18"
        transform="translate(-200.732 -19.88)" />
    <path d="M239.049,71.22a79.106,79.106,0,0,1,13.427-5.047,1.726,1.726,0,0,0-.917-3.326,83.859,83.859,0,0,0-14.252,5.394c-2,.968-.251,3.945,1.741,2.979Z" data-name="Path 459"
        fill="#ffe424"
        id="Path_459" opacity="0.48" transform="translate(-205.635 -17.564)" />
    <path d="M233.088,73.949q-.273,3.673-.543,7.346c-.164,2.215,3.287,2.2,3.451,0q.271-3.673.543-7.346c.163-2.215-3.287-2.2-3.451,0Z" data-name="Path 460"
        fill="#ffe424"
        id="Path_460" opacity="0.48" transform="translate(-206.219 -16.135)" />
    <path d="M283.63,67.364l15.52,5.2c2.111.707,3.016-2.625.918-3.328l-15.52-5.2c-2.111-.706-3.016,2.625-.918,3.327Z" data-name="Path 461"
        fill="#ffc91f"
        id="Path_461" opacity="0.45" transform="translate(-198.724 -17.389)" />
    <path d="M299.731,74.081q.085,3.671-.129,7.334c-.129,2.218,3.323,2.211,3.451,0q.214-3.666.129-7.334c-.051-2.216-3.5-2.224-3.451,0Z" data-name="Path 462"
        fill="#ffc91f"
        id="Path_462" opacity="0.45" transform="translate(-196.147 -16.116)" />
    <path d="M235.614,122.977l.079,8.7c.021,2.22,3.471,2.224,3.451,0l-.079-8.7c-.021-2.219-3.471-2.224-3.451,0Z" data-name="Path 463"
        fill="#ffc91f"
        id="Path_463" opacity="0.45" transform="translate(-205.757 -8.773)" />
    <path d="M235.626,105.449l.131,14.232c.021,2.219,3.471,2.224,3.451,0q-.066-7.117-.131-14.232c-.02-2.219-3.47-2.224-3.451,0Z" data-name="Path 464"
        fill="#ffc91f"
        id="Path_464" opacity="0.45" transform="translate(-205.755 -11.405)" />
    <path d="M297.151,100.028q-.25,10.257-.189,20.515c.014,2.22,3.464,2.224,3.451,0q-.06-10.259.189-20.515c.054-2.222-3.4-2.221-3.451,0Z" data-name="Path 465"
        fill="#ffae1f"
        id="Path_465" opacity="0.51" transform="translate(-196.545 -12.22)" />
    <path d="M297.056,123.526a43.1,43.1,0,0,0,.206,9.014c.277,2.173,3.731,2.2,3.451,0a43.1,43.1,0,0,1-.206-9.014c.181-2.213-3.271-2.2-3.451,0Z" data-name="Path 466"
        fill="#ffae1f"
        id="Path_466" opacity="0.51" transform="translate(-196.551 -8.689)" />
    <path d="M220.775,63.109q6.751-2.038,13.368-4.468c2.068-.759,1.174-4.1-.917-3.328q-6.62,2.431-13.368,4.468c-2.121.641-1.217,3.972.917,3.327Z" data-name="Path 467"
        fill="#ef4b4b"
        id="Path_467" transform="translate(-208.305 -18.702)" />
    <path d="M217.146,85.578q-.39,12.3-.057,24.59c.06,2.216,3.512,2.224,3.451,0q-.333-12.3.058-24.59c.07-2.221-3.38-2.219-3.451,0Z" data-name="Path 468"
        fill="#ef4b4b"
        id="Path_468" transform="translate(-208.562 -14.39)" />
    <path d="M217.283,111.954q-.129,4.17-.047,8.341c.044,2.218,3.494,2.224,3.451,0q-.083-4.172.047-8.341c.069-2.221-3.382-2.219-3.451,0Z" data-name="Path 469"
        fill="#ef4b4b"
        id="Path_469" transform="translate(-208.522 -10.428)" />
</svg>
