<svg xmlns="http://www.w3.org/2000/svg" xmlns:xlink="http://www.w3.org/1999/xlink" width="20" height="20" viewBox="0 0 20 20">
  <defs>
    <clipPath id="clip-path">
      <rect id="Rectangle_16" data-name="Rectangle 16" width="20" height="20" transform="translate(41.863 368.56)" fill="#ff4f00"/>
    </clipPath>
  </defs>
  <g id="Mask_Group_1" data-name="Mask Group 1" transform="translate(-41.863 -368.56)" clip-path="url(#clip-path)">
    <g id="payment-method" transform="translate(43.082 369.931)">
      <g id="Group_74" data-name="Group 74" transform="translate(5.09 12.791)">
        <g id="Group_73" data-name="Group 73">
          <path id="Path_109" data-name="Path 109" d="M19.159,46.755a.348.348,0,0,0-.019-.063.338.338,0,0,0-.031-.057.324.324,0,0,0-.092-.092.329.329,0,0,0-.058-.031.312.312,0,0,0-.062-.019.328.328,0,0,0-.13,0,.322.322,0,0,0-.063.019.338.338,0,0,0-.057.031.333.333,0,0,0-.123.149.323.323,0,0,0-.019.063.32.32,0,0,0,0,.13.313.313,0,0,0,.019.062.308.308,0,0,0,.031.058.324.324,0,0,0,.092.092.336.336,0,0,0,.057.031.323.323,0,0,0,.063.019.32.32,0,0,0,.13,0,.313.313,0,0,0,.062-.019.329.329,0,0,0,.058-.031A.324.324,0,0,0,19.109,47a.329.329,0,0,0,.031-.058.337.337,0,0,0,.019-.062.32.32,0,0,0,0-.13Z" transform="translate(-18.499 -46.487)" fill="#ff4f00"/>
        </g>
      </g>
      <g id="Group_76" data-name="Group 76" transform="translate(0 10.327)">
        <g id="Group_75" data-name="Group 75">
          <path id="Path_110" data-name="Path 110" d="M15.329,40.368l0-.01a1.386,1.386,0,0,0-1.877-.692l-2.322.642a1.522,1.522,0,0,0-.942-.928l-.009,0L7.623,38.51A2.632,2.632,0,0,0,5.5,37.533a2.665,2.665,0,0,0-2.081,1.248H.333A.333.333,0,0,0,0,39.114v4.2a.333.333,0,0,0,.333.333H2.315a.333.333,0,0,0,.333-.333v-.288h.929a.333.333,0,0,0,.333-.333v-.1a2.363,2.363,0,0,1,1.217.437,20.165,20.165,0,0,0,2,1.022l.015.006a2.991,2.991,0,0,0,1.072.2,2.656,2.656,0,0,0,1.1-.236l5.132-1.837.027-.011A1.422,1.422,0,0,0,15.329,40.368ZM1.981,42.983H.666V39.448H1.981Zm1.262-.621h-.6V39.448h.6Zm10.969-.791L9.083,43.407l-.015.006-.013.006a2.16,2.16,0,0,1-1.66.028,19.306,19.306,0,0,1-1.935-.988,3,3,0,0,0-1.55-.527V39.247A2.058,2.058,0,0,1,5.5,38.2a1.923,1.923,0,0,1,1.631.766.333.333,0,0,0,.177.141l2.648.9a.748.748,0,0,1,.544.882.649.649,0,0,1-.8.448L6.716,40.39a.333.333,0,1,0-.2.635l2.991.948.01,0a1.308,1.308,0,0,0,1-.116,1.307,1.307,0,0,0,.625-.79q.011-.04.02-.081l2.5-.693c.361-.123.836-.168,1.047.319C14.928,41.186,14.36,41.5,14.213,41.57Z" transform="translate(0 -37.533)" fill="#ff4f00"/>
        </g>
      </g>
      <g id="Group_78" data-name="Group 78" transform="translate(11.305 4.115)">
        <g id="Group_77" data-name="Group 77">
          <path id="Path_111" data-name="Path 111" d="M41.745,15.224a.324.324,0,0,0-.019-.063.328.328,0,0,0-.123-.149.338.338,0,0,0-.057-.031.332.332,0,0,0-.193-.019.313.313,0,0,0-.062.019.329.329,0,0,0-.058.031.324.324,0,0,0-.092.092.338.338,0,0,0-.031.057.323.323,0,0,0-.019.063.32.32,0,0,0,0,.13.313.313,0,0,0,.019.062.329.329,0,0,0,.031.058.324.324,0,0,0,.092.092.329.329,0,0,0,.058.031.337.337,0,0,0,.062.019.328.328,0,0,0,.065.007.334.334,0,0,0,.065-.007.353.353,0,0,0,.062-.019.338.338,0,0,0,.057-.031.324.324,0,0,0,.092-.092.308.308,0,0,0,.031-.058.314.314,0,0,0,.019-.062.337.337,0,0,0,0-.13Z" transform="translate(-41.085 -14.956)" fill="#ff4f00"/>
        </g>
      </g>
      <g id="Group_80" data-name="Group 80" transform="translate(0.989 0)">
        <g id="Group_79" data-name="Group 79">
          <path id="Path_112" data-name="Path 112" d="M19.335,1.131H17.354a.333.333,0,0,0-.333.333v.288h-.929a.333.333,0,0,0-.333.333v.1a2.363,2.363,0,0,1-1.217-.437,20.164,20.164,0,0,0-2-1.022L12.524.716a2.835,2.835,0,0,0-2.176.034l-1.341.48L7.877.1a.333.333,0,0,0-.471,0L3.695,3.811a.33.33,0,0,0,0,.471l6.341,6.341a.36.36,0,0,0,.471,0l3.388-3.388c.088.008.179.012.274.012A2.665,2.665,0,0,0,16.25,6h3.085a.333.333,0,0,0,.333-.333v-4.2A.333.333,0,0,0,19.335,1.131ZM7.641.807l.76.76a1.453,1.453,0,0,1-1.519,0Zm-2.48,4-.76-.76.76-.76a1.453,1.453,0,0,1,0,1.519Zm5.11,5.11-.759-.759a1.451,1.451,0,0,1,1.519,0Zm1.239-1.239a2.118,2.118,0,0,0-2.479,0L5.641,5.287a2.118,2.118,0,0,0,0-2.479l.76-.76a2.118,2.118,0,0,0,2.479,0l.721.721a1.321,1.321,0,0,0-.992.727,1.9,1.9,0,1,0,2.184,2.351l1.125.382a2.128,2.128,0,0,0,.353,1.689ZM9.485,5.4l.009,0,.666.226A1.233,1.233,0,1,1,8.486,4.222,1.475,1.475,0,0,0,9.485,5.4Zm3.267,2.035a1.458,1.458,0,0,1-.213-.693,2.591,2.591,0,0,0,.588.318Zm3.006-1.9a2.058,2.058,0,0,1-1.589,1.048,2.425,2.425,0,0,1-.348-.024h0a1.909,1.909,0,0,1-1.234-.676l-.04-.054a.332.332,0,0,0-.184-.153l-2.65-.9a.748.748,0,0,1-.544-.882h0a.649.649,0,0,1,.8-.447l2.986.946a.333.333,0,1,0,.2-.635L10.779,3l-.021-.021h0L9.528,1.752l1.057-.378.011,0h0l.013-.006a2.16,2.16,0,0,1,1.66-.028,19.3,19.3,0,0,1,1.935.988,3,3,0,0,0,1.55.527Zm1.262-.2h-.6V2.419h.6Zm1.981,0H17.687V1.8H19Z" transform="translate(-3.596 -0.003)" fill="#ff4f00"/>
        </g>
      </g>
    </g>
  </g>
</svg>
