<svg xmlns="http://www.w3.org/2000/svg" width="10.957" height="10.976" viewBox="0 0 10.957 10.976">
  <path id="pencil" d="M10.957,1.713A1.716,1.716,0,0,0,8.027.5L1.12,7.437a2.056,2.056,0,0,0-.5.8l-.006.02L0,10.975l2.722-.609.02-.007a2.059,2.059,0,0,0,.8-.5l6.908-6.936a1.7,1.7,0,0,0,.5-1.214ZM1.509,9.759,1.221,9.47l.208-.917,1,1ZM9.848,2.322,3.142,9.055,1.927,7.84,6.521,3.228l.7.7.606-.606-.7-.7.652-.654.7.7.606-.606-.7-.7.251-.252A.859.859,0,1,1,9.848,2.322ZM4.507,10.109h6.45v.857h-7.3Zm0,0" transform="translate(0 0.001)" fill="#646464"/>
</svg>
