<svg xmlns="http://www.w3.org/2000/svg" width="9.667" height="13.748" viewBox="0 0 9.667 13.748">
  <g id="placeholder" transform="translate(-76)">
    <g id="Group_109" data-name="Group 109" transform="translate(76)">
      <g id="Group_108" data-name="Group 108" transform="translate(0)">
        <path id="Path_268" data-name="Path 268" d="M80.833,0a4.834,4.834,0,0,0-4.112,7.375l3.837,6.183a.4.4,0,0,0,.342.19h0a.4.4,0,0,0,.342-.2L84.985,7.31A4.834,4.834,0,0,0,80.833,0Zm3.46,6.9-3.4,5.676L77.406,6.95A4.03,4.03,0,1,1,84.294,6.9Z" transform="translate(-76)" fill="#ff2300"/>
      </g>
    </g>
    <g id="Group_111" data-name="Group 111" transform="translate(78.417 2.417)">
      <g id="Group_110" data-name="Group 110" transform="translate(0)">
        <path id="Path_269" data-name="Path 269" d="M168.417,90a2.417,2.417,0,1,0,2.417,2.417A2.419,2.419,0,0,0,168.417,90Zm0,4.033a1.616,1.616,0,1,1,1.614-1.616A1.618,1.618,0,0,1,168.417,94.033Z" transform="translate(-166 -90)" fill="#ff2300"/>
      </g>
    </g>
  </g>
</svg>
