<svg xmlns="http://www.w3.org/2000/svg" width="17.364" height="18.392" viewBox="0 0 17.364 18.392">
  <g id="delivery-man" transform="translate(-14.317)">
    <g id="Group_42" data-name="Group 42" transform="translate(20.241 3.065)">
      <g id="Group_41" data-name="Group 41">
        <path id="Path_98" data-name="Path 98" d="M184.115,85.333v1.533a2.146,2.146,0,0,1-4.292,0V85.333h-.613v1.533a2.759,2.759,0,1,0,5.518,0V85.333Z" transform="translate(-179.21 -85.333)" fill="#ff4f00"/>
      </g>
    </g>
    <g id="Group_44" data-name="Group 44" transform="translate(24.225 6.437)">
      <g id="Group_43" data-name="Group 43">
        <path id="Path_99" data-name="Path 99" d="M297.525,188.488l-1.65-6.605a1.536,1.536,0,0,0-1.463-1.149l-3.666-.284V179.2h-.613v1.533a.307.307,0,0,0,.283.306l3.973.307h0a.919.919,0,0,1,.89.687l1.649,6.6a1.533,1.533,0,0,1-1.487,1.905v.613a2.145,2.145,0,0,0,2.081-2.667Z" transform="translate(-290.134 -179.2)" fill="#ff4f00"/>
      </g>
    </g>
    <g id="Group_46" data-name="Group 46" transform="translate(14.317 6.437)">
      <g id="Group_45" data-name="Group 45">
        <path id="Path_100" data-name="Path 100" d="M21.16,179.2v1.249l-3.641.284h0a1.533,1.533,0,0,0-1.485,1.152l-1.649,6.6a2.146,2.146,0,0,0,2.081,2.668v-.613a1.533,1.533,0,0,1-1.487-1.906l1.649-6.6a.929.929,0,0,1,.917-.691l3.948-.307a.307.307,0,0,0,.283-.306V179.2Z" transform="translate(-14.317 -179.2)" fill="#ff4f00"/>
      </g>
    </g>
    <g id="Group_48" data-name="Group 48" transform="translate(20.241)">
      <g id="Group_47" data-name="Group 47">
        <path id="Path_101" data-name="Path 101" d="M183.2,0h-2.452a1.534,1.534,0,0,0-1.533,1.533V3.372a.307.307,0,0,0,.307.307h4.9a.307.307,0,0,0,.307-.307V1.533A1.534,1.534,0,0,0,183.2,0Zm.92,3.065h-4.292V1.533a.921.921,0,0,1,.92-.92H183.2a.921.921,0,0,1,.92.92V3.065Z" transform="translate(-179.21)" fill="#ff4f00"/>
      </g>
    </g>
    <g id="Group_50" data-name="Group 50" transform="translate(20.241 1.839)">
      <g id="Group_49" data-name="Group 49">
        <path id="Path_102" data-name="Path 102" d="M183.194,51.2h-2.452a1.534,1.534,0,0,0-1.533,1.533.307.307,0,0,0,.307.307h4.9a.307.307,0,0,0,.307-.307A1.534,1.534,0,0,0,183.194,51.2Zm-3.319,1.226a.921.921,0,0,1,.867-.613h2.452a.921.921,0,0,1,.867.613Z" transform="translate(-179.209 -51.2)" fill="#ff4f00"/>
      </g>
    </g>
    <g id="Group_52" data-name="Group 52" transform="translate(22.387 3.372)">
      <g id="Group_51" data-name="Group 51">
        <path id="Path_103" data-name="Path 103" d="M239.556,95.093V93.867h-.613V95.4a.307.307,0,0,0,.307.307h.613v-.613Z" transform="translate(-238.943 -93.867)" fill="#ff4f00"/>
      </g>
    </g>
    <g id="Group_54" data-name="Group 54" transform="translate(15.949 15.02)">
      <g id="Group_53" data-name="Group 53">
        <path id="Path_104" data-name="Path 104" d="M64.035,419.666H61.582v-.613a.92.92,0,0,0-1.839,0V421.2a.306.306,0,0,0,.307.307h2.759a1.534,1.534,0,0,0,1.533-1.533A.306.306,0,0,0,64.035,419.666Zm-1.226,1.226H60.356v-1.839a.307.307,0,0,1,.613,0v.92a.306.306,0,0,0,.307.307h2.4A.921.921,0,0,1,62.808,420.892Z" transform="translate(-59.743 -418.133)" fill="#ff4f00"/>
      </g>
    </g>
    <g id="Group_56" data-name="Group 56" transform="translate(15.336 13.181)">
      <g id="Group_55" data-name="Group 55">
        <rect id="Rectangle_11" data-name="Rectangle 11" width="2.146" height="0.613" fill="#ff4f00"/>
      </g>
    </g>
    <g id="Group_58" data-name="Group 58" transform="translate(28.517 13.181)">
      <g id="Group_57" data-name="Group 57">
        <rect id="Rectangle_12" data-name="Rectangle 12" width="2.146" height="0.613" fill="#ff4f00"/>
      </g>
    </g>
    <g id="Group_60" data-name="Group 60" transform="translate(17.175 9.196)">
      <g id="Group_59" data-name="Group 59">
        <path id="Path_105" data-name="Path 105" d="M105.219,256H94.184a.307.307,0,0,0-.307.307v7.357a.306.306,0,0,0,.307.307h11.035a.306.306,0,0,0,.307-.307v-7.357A.306.306,0,0,0,105.219,256Zm-.307,7.357H94.49v-6.744h10.422v6.744Z" transform="translate(-93.877 -256)" fill="#ff4f00"/>
      </g>
    </g>
    <g id="Group_62" data-name="Group 62" transform="translate(26.984 15.327)">
      <g id="Group_61" data-name="Group 61">
        <rect id="Rectangle_13" data-name="Rectangle 13" width="0.613" height="0.613" fill="#ff4f00"/>
      </g>
    </g>
    <g id="Group_64" data-name="Group 64" transform="translate(25.758 15.327)">
      <g id="Group_63" data-name="Group 63" transform="translate(0)">
        <rect id="Rectangle_14" data-name="Rectangle 14" width="0.613" height="0.613" fill="#ff4f00"/>
      </g>
    </g>
    <g id="Group_66" data-name="Group 66" transform="translate(21.25 7.753)">
      <g id="Group_65" data-name="Group 65">
        <path id="Path_106" data-name="Path 106" d="M210.375,215.834l-1.316,1.316-1.316-1.316-.433.433,1.533,1.533a.306.306,0,0,0,.433,0l1.532-1.533Z" transform="translate(-207.31 -215.834)" fill="#ff4f00"/>
      </g>
    </g>
    <g id="Group_68" data-name="Group 68" transform="translate(25.452 15.02)">
      <g id="Group_67" data-name="Group 67">
        <path id="Path_107" data-name="Path 107" d="M327.955,418.133a.921.921,0,0,0-.92.92v.613h-2.452a.306.306,0,0,0-.307.307,1.534,1.534,0,0,0,1.533,1.533h2.759a.306.306,0,0,0,.307-.307v-2.146A.921.921,0,0,0,327.955,418.133Zm.307,2.759H325.81a.921.921,0,0,1-.867-.613h2.4a.306.306,0,0,0,.307-.307v-.92a.307.307,0,0,1,.613,0v1.839Z" transform="translate(-324.277 -418.133)" fill="#ff4f00"/>
      </g>
    </g>
    <g id="Group_70" data-name="Group 70" transform="translate(17.482 11.342)">
      <g id="Group_69" data-name="Group 69" transform="translate(0)">
        <rect id="Rectangle_15" data-name="Rectangle 15" width="11.035" height="0.613" fill="#ff4f00"/>
      </g>
    </g>
    <g id="Group_72" data-name="Group 72" transform="translate(21.467 9.196)">
      <g id="Group_71" data-name="Group 71">
        <path id="Path_108" data-name="Path 108" d="M216.1,256H213.65a.307.307,0,0,0-.307.307v3.985a.306.306,0,0,0,.307.307H216.1a.306.306,0,0,0,.307-.307v-3.985A.306.306,0,0,0,216.1,256Zm-.307,3.985h-1.839v-3.372H215.8Z" transform="translate(-213.343 -256)" fill="#ff4f00"/>
      </g>
    </g>
  </g>
</svg>
