<svg xmlns="http://www.w3.org/2000/svg" width="26" height="20.44" viewBox="0 0 26 20.44">
  <g id="chat" transform="translate(0 -0.5)">
    <path id="Path_418" data-name="Path 418" d="M62.665,47.857l-.028-.027L62.6,47.8l-.025-.022-.038-.033-.024-.019-.041-.033-.026-.018-.042-.029-.021-.013-.049-.031-.012-.006-.06-.034-.008,0-.065-.033-.008,0-.067-.03-.005,0c-.049-.02-.1-.038-.149-.053l-.016,0-.064-.018h0l-.078-.018-.02,0-.062-.011-.032,0-.051-.006-.051,0-.032,0-.084,0a1.687,1.687,0,0,0-1.685,1.685v1.088a.379.379,0,0,0,.379.379H62.78a.379.379,0,0,0,.379-.379V49.048a1.671,1.671,0,0,0-.493-1.191Zm-.264,1.9H60.545v-.71a.928.928,0,0,1,1.855,0Zm0,0" transform="translate(-56.016 -43.906)" fill="#333"/>
    <path id="Path_419" data-name="Path 419" d="M249.185,47.359a1.687,1.687,0,0,0-1.685,1.685v1.088a.379.379,0,0,0,.379.379h2.612a.379.379,0,0,0,.379-.379V49.045a1.685,1.685,0,0,0-1.685-1.685Zm.928,2.395h-1.856v-.71a.928.928,0,1,1,1.855,0Zm0,0" transform="translate(-231.881 -43.902)" fill="#333"/>
    <path id="Path_420" data-name="Path 420" d="M138.538,118.359h-5.226a.379.379,0,0,0-.379.379,2.992,2.992,0,0,0,5.983,0A.379.379,0,0,0,138.538,118.359Zm-1.033,1.958a2.234,2.234,0,0,1-3.782-1.2h4.4a2.219,2.219,0,0,1-.623,1.2Zm0,0" transform="translate(-124.544 -110.421)" fill="#333"/>
    <path id="Path_421" data-name="Path 421" d="M20.017,18.12H16.849a2.441,2.441,0,1,0,0,.757h3.168a4.6,4.6,0,0,0,4.6-4.6V10.612a3.642,3.642,0,0,0-1.853-6.478v-1.3A2.341,2.341,0,0,0,20.422.5H2.339A2.341,2.341,0,0,0,0,2.839v9.833A2.341,2.341,0,0,0,2.339,15.01h.8v4.273a.379.379,0,0,0,.63.283L8.884,15.01H20.423a2.342,2.342,0,0,0,2.339-2.338V11.377a3.617,3.617,0,0,0,1.1-.3v3.207a3.844,3.844,0,0,1-3.84,3.839Zm-5.58,2.063A1.684,1.684,0,1,1,16.121,18.5,1.684,1.684,0,0,1,14.437,20.183ZM22,12.672a1.583,1.583,0,0,1-1.581,1.581H8.74a.378.378,0,0,0-.252.1l-4.6,4.091V14.631a.378.378,0,0,0-.379-.379H2.339A1.583,1.583,0,0,1,.757,12.672V2.839A1.583,1.583,0,0,1,2.339,1.257H20.422A1.583,1.583,0,0,1,22,2.839ZM22.761,4.9a2.887,2.887,0,0,1,0,5.716Zm0,0" transform="translate(0)" fill="#333"/>
  </g>
</svg>
