<svg xmlns="http://www.w3.org/2000/svg" width="34.999" height="34.999" viewBox="0 0 34.999 34.999">
  <g id="startup_1_" data-name="startup (1)" transform="translate(-0.001 0)">
    <path id="Path_319" data-name="Path 319" d="M392.638,10a29.935,29.935,0,0,1-1.661,8.006l-6.345-6.345A29.935,29.935,0,0,1,392.638,10Z" transform="translate(-358.338 -9.317)" fill="#ff5249"/>
    <path id="Path_320" data-name="Path 320" d="M195.061,34.3l6.345,6.345a22.409,22.409,0,0,1-5.106,8.428,26.72,26.72,0,0,1-8.053,5.481l-7.1-7.1a27.133,27.133,0,0,1,3.663-6.027,25.379,25.379,0,0,1,1.818-2.026A22.409,22.409,0,0,1,195.061,34.3Z" transform="translate(-168.768 -31.956)" fill="#fff"/>
    <path id="Path_321" data-name="Path 321" d="M324.995,112.227a2.734,2.734,0,1,1-3.867,0A2.735,2.735,0,0,1,324.995,112.227Z" transform="translate(-298.429 -103.809)" fill="#7bd8e8"/>
    <g id="Group_137" data-name="Group 137" transform="translate(7.232 8.38)">
      <path id="Path_322" data-name="Path 322" d="M282.249,277.127c3.523,5.285-3.072,8.7-6.767,8.7a5.079,5.079,0,0,0,1.369-4.432l-.721-.721a27.135,27.135,0,0,0,6.027-3.663Z" transform="translate(-263.881 -266.456)" fill="#ff5249"/>
      <path id="Path_323" data-name="Path 323" d="M162.442,231.807l-.111-.111a1.325,1.325,0,0,1-.373-1.25,23.821,23.821,0,0,1,1.278-3.645l7.1,7.1a23.823,23.823,0,0,1-3.646,1.278,1.325,1.325,0,0,1-1.25-.373l-.111-.111Z" transform="translate(-158.083 -219.678)" fill="#ff5249"/>
      <path id="Path_324" data-name="Path 324" d="M114.473,123.6l.116.092a27.134,27.134,0,0,0-3.663,6.027L110.2,129a5.079,5.079,0,0,0-4.432,1.369C105.772,126.672,109.188,120.076,114.473,123.6Z" transform="translate(-105.772 -122.596)" fill="#ff5249"/>
    </g>
    <path id="Path_325" data-name="Path 325" d="M110.13,300.041l2.883,2.883a5.387,5.387,0,0,1-1.442,2.425c-1.6,1.6-5.8,1.933-5.8,1.933s.332-4.2,1.933-5.8A5.387,5.387,0,0,1,110.13,300.041Z" transform="translate(-98.54 -279.531)" fill="#ffdd78"/>
    <path id="Path_326" data-name="Path 326" d="M252.754,241.586a.684.684,0,1,0-.967,0A.684.684,0,0,0,252.754,241.586Z" transform="translate(-234.388 -223.984)"/>
    <path id="Path_327" data-name="Path 327" d="M316.436,107.251a3.418,3.418,0,1,0-4.834,0A3.416,3.416,0,0,0,316.436,107.251Zm-3.867-3.867a2.051,2.051,0,1,1,0,2.9A2.05,2.05,0,0,1,312.569,103.384Z" transform="translate(-289.37 -94.483)"/>
    <path id="Path_328" data-name="Path 328" d="M96.44,16.782a.683.683,0,0,0,.745-.148A4.352,4.352,0,0,1,100.8,15.42l.239.239a24.044,24.044,0,0,0-1.129,3.32A1.935,1.935,0,0,0,100,20.167a6.473,6.473,0,0,0-1.846,1.3c-1.76,1.76-2.117,6.048-2.131,6.23a.683.683,0,0,0,.681.737l.054,0c.182-.014,4.47-.372,6.23-2.131a6.474,6.474,0,0,0,1.3-1.846,1.93,1.93,0,0,0,1.188.082,24.046,24.046,0,0,0,3.32-1.129l.239.239a4.352,4.352,0,0,1-1.214,3.619.684.684,0,0,0,.483,1.167c2.706,0,6.488-1.611,7.881-4.214a5.01,5.01,0,0,0-.3-5.151c.557-.471,1.093-.963,1.6-1.469a22.888,22.888,0,0,0,5.267-8.684,30.367,30.367,0,0,0,1.7-8.209A.683.683,0,0,0,123.745,0a30.367,30.367,0,0,0-8.209,1.7,22.887,22.887,0,0,0-8.684,5.267c-.506.506-1,1.042-1.469,1.6a5.01,5.01,0,0,0-5.151-.3c-2.6,1.393-4.214,5.176-4.214,7.881A.684.684,0,0,0,96.44,16.782Zm5.578,8.553c-.94.94-3.145,1.436-4.538,1.638.2-1.394.7-3.6,1.638-4.538a4.926,4.926,0,0,1,1.75-1.15l2.3,2.3A4.925,4.925,0,0,1,102.019,25.335Zm3.116-2.121a.641.641,0,0,1-.6-.194l-3.1-3.1a.642.642,0,0,1-.194-.6,22.2,22.2,0,0,1,.854-2.611l5.653,5.653A22.181,22.181,0,0,1,105.135,23.214Zm9.844.361c-.9,1.673-3.151,2.907-5.206,3.331a5.818,5.818,0,0,0,.56-3.754.714.714,0,0,0-.208-.345,27.649,27.649,0,0,0,4.682-2.872A3.642,3.642,0,0,1,114.979,23.576Zm6.83-16.153-4.778-4.778a30.733,30.733,0,0,1,6-1.22A30.738,30.738,0,0,1,121.809,7.423Zm-13.99.511a21.315,21.315,0,0,1,7.77-4.8l5.728,5.728a21.313,21.313,0,0,1-4.8,7.77,24.81,24.81,0,0,1-1.971,1.769,26.263,26.263,0,0,1-5.449,3.378l-6.427-6.427a26.259,26.259,0,0,1,3.378-5.449A24.807,24.807,0,0,1,107.819,7.934Zm-6.941,1.541a3.642,3.642,0,0,1,3.64.172,27.639,27.639,0,0,0-2.872,4.682.721.721,0,0,0-.362-.213,5.843,5.843,0,0,0-3.738.565C97.971,12.625,99.2,10.37,100.878,9.475Z" transform="translate(-89.453)"/>
    <path id="Path_329" data-name="Path 329" d="M196.188,413.222l1.933-1.934a.684.684,0,1,0-.967-.967l-1.933,1.934a.684.684,0,1,0,.967.967Z" transform="translate(-181.688 -382.086)"/>
    <path id="Path_330" data-name="Path 330" d="M54.759,271.8l1.934-1.933a.684.684,0,1,0-.967-.967l-1.934,1.933a.684.684,0,1,0,.967.967Z" transform="translate(-49.927 -250.334)"/>
    <path id="Path_331" data-name="Path 331" d="M89.682,424.471l-4.631,4.63a.684.684,0,0,0,.967.967l4.631-4.63a.684.684,0,1,0-.967-.967Z" transform="translate(-79.05 -395.269)"/>
    <path id="Path_332" data-name="Path 332" d="M9.682,424.471,5.052,429.1a.684.684,0,0,0,.967.967l4.631-4.63a.684.684,0,1,0-.967-.967Z" transform="translate(-4.518 -395.269)"/>
    <path id="Path_333" data-name="Path 333" d="M1.168,345.208l4.63-4.631a.684.684,0,1,0-.967-.967L.2,344.241a.684.684,0,0,0,.967.967Z" transform="translate(0 -316.209)"/>
    <path id="Path_334" data-name="Path 334" d="M281.038,200.124l.967-.967a.684.684,0,1,0-.967-.967l-.967.967a.684.684,0,0,0,.967.967Z" transform="translate(-260.739 -184.456)"/>
  </g>
</svg>
