<svg xmlns="http://www.w3.org/2000/svg" width="18.003" height="18.003" viewBox="0 0 18.003 18.003">
  <g id="startup" transform="translate(-0.001 0)">
    <g id="Group_113" data-name="Group 113" transform="translate(8.848 8.454)">
      <g id="Group_112" data-name="Group 112">
        <path id="Path_277" data-name="Path 277" d="M252.187,240.522a.352.352,0,1,0,0,.5A.352.352,0,0,0,252.187,240.522Z" transform="translate(-251.587 -240.418)" fill="#ff4f00"/>
      </g>
    </g>
    <g id="Group_115" data-name="Group 115" transform="translate(10.923 3.566)">
      <g id="Group_114" data-name="Group 114">
        <path id="Path_278" data-name="Path 278" d="M313.6,101.931a1.758,1.758,0,1,0,0,2.486A1.757,1.757,0,0,0,313.6,101.931Zm-.5,1.989a1.055,1.055,0,1,1,0-1.492A1.056,1.056,0,0,1,313.106,103.92Z" transform="translate(-310.603 -101.415)" fill="#ff4f00"/>
      </g>
    </g>
    <g id="Group_117" data-name="Group 117" transform="translate(3.378 0)">
      <g id="Group_116" data-name="Group 116" transform="translate(0 0)">
        <path id="Path_279" data-name="Path 279" d="M110.542.1a.35.35,0,0,0-.261-.1,15.62,15.62,0,0,0-4.223.874,11.772,11.772,0,0,0-4.467,2.709c-.26.26-.513.536-.756.823a2.577,2.577,0,0,0-2.649-.153,4.98,4.98,0,0,0-2.168,4.054.352.352,0,0,0,.6.249,2.238,2.238,0,0,1,1.862-.625l.123.123a12.367,12.367,0,0,0-.581,1.708,1,1,0,0,0,.043.611,3.33,3.33,0,0,0-.95.669c-.905.905-1.089,3.111-1.1,3.2a.352.352,0,0,0,.35.379H96.4c.093-.007,2.3-.191,3.2-1.1a3.33,3.33,0,0,0,.669-.949.993.993,0,0,0,.611.042,12.369,12.369,0,0,0,1.708-.581l.123.123a2.239,2.239,0,0,1-.625,1.862.352.352,0,0,0,.249.6,4.98,4.98,0,0,0,4.054-2.168,2.577,2.577,0,0,0-.153-2.649c.286-.242.562-.5.823-.756a11.773,11.773,0,0,0,2.709-4.467,15.62,15.62,0,0,0,.874-4.223A.352.352,0,0,0,110.542.1ZM96.8,7.551a4.063,4.063,0,0,1,1.714-2.678,1.873,1.873,0,0,1,1.872.088A14.217,14.217,0,0,0,98.913,7.37a.371.371,0,0,0-.186-.109A3.005,3.005,0,0,0,96.8,7.551Zm2.3,5.481a4.787,4.787,0,0,1-2.334.843,4.787,4.787,0,0,1,.843-2.334,2.534,2.534,0,0,1,.9-.592L99.7,12.132A2.534,2.534,0,0,1,99.1,13.032Zm1.6-1.091a.33.33,0,0,1-.307-.1l-.689-.689-.908-.908a.33.33,0,0,1-.1-.307,11.418,11.418,0,0,1,.439-1.343L102.05,11.5A11.41,11.41,0,0,1,100.708,11.941Zm5.063.186a4.063,4.063,0,0,1-2.678,1.714,2.993,2.993,0,0,0,.288-1.931.367.367,0,0,0-.107-.178,14.222,14.222,0,0,0,2.408-1.477A1.874,1.874,0,0,1,105.771,12.127Zm.793-3.57a12.761,12.761,0,0,1-1.014.91,13.509,13.509,0,0,1-2.8,1.738L99.441,7.9a13.507,13.507,0,0,1,1.738-2.8,12.76,12.76,0,0,1,.91-1.014,10.964,10.964,0,0,1,4-2.468l2.946,2.946A10.963,10.963,0,0,1,106.564,8.557Zm2.721-4.739L106.827,1.36a15.808,15.808,0,0,1,3.085-.628A15.811,15.811,0,0,1,109.284,3.818Z" transform="translate(-96.018 0)" fill="#ff4f00"/>
      </g>
    </g>
    <g id="Group_119" data-name="Group 119" transform="translate(6.859 14.421)">
      <g id="Group_118" data-name="Group 118">
        <path id="Path_280" data-name="Path 280" d="M196.615,410.224a.352.352,0,0,0-.5,0l-.994.995a.352.352,0,0,0,.5.5l.994-.995A.352.352,0,0,0,196.615,410.224Z" transform="translate(-195.021 -410.121)" fill="#ff4f00"/>
      </g>
    </g>
    <g id="Group_121" data-name="Group 121" transform="translate(1.886 9.448)">
      <g id="Group_120" data-name="Group 120">
        <path id="Path_281" data-name="Path 281" d="M55.187,268.8a.352.352,0,0,0-.5,0l-.995.994a.352.352,0,1,0,.5.5l.995-.994A.352.352,0,0,0,55.187,268.8Z" transform="translate(-53.592 -268.701)" fill="#ff4f00"/>
      </g>
    </g>
    <g id="Group_123" data-name="Group 123" transform="translate(2.985 14.918)">
      <g id="Group_122" data-name="Group 122">
        <path id="Path_282" data-name="Path 282" d="M87.834,424.374a.352.352,0,0,0-.5,0l-2.382,2.382a.352.352,0,0,0,.5.5l2.382-2.382A.352.352,0,0,0,87.834,424.374Z" transform="translate(-84.851 -424.271)" fill="#ff4f00"/>
      </g>
    </g>
    <g id="Group_125" data-name="Group 125" transform="translate(0.172 14.918)">
      <g id="Group_124" data-name="Group 124">
        <path id="Path_283" data-name="Path 283" d="M7.834,424.374a.352.352,0,0,0-.5,0l-2.382,2.382a.352.352,0,0,0,.5.5l2.382-2.382A.352.352,0,0,0,7.834,424.374Z" transform="translate(-4.851 -424.271)" fill="#ff4f00"/>
      </g>
    </g>
    <g id="Group_127" data-name="Group 127" transform="translate(0.001 11.934)">
      <g id="Group_126" data-name="Group 126" transform="translate(0)">
        <path id="Path_284" data-name="Path 284" d="M2.983,339.513a.352.352,0,0,0-.5,0L.1,341.9a.352.352,0,0,0,.5.5l2.382-2.382A.352.352,0,0,0,2.983,339.513Z" transform="translate(-0.001 -339.41)" fill="#ff4f00"/>
      </g>
    </g>
    <g id="Group_129" data-name="Group 129" transform="translate(9.842 6.962)">
      <g id="Group_128" data-name="Group 128">
        <path id="Path_285" data-name="Path 285" d="M280.969,198.093a.352.352,0,0,0-.5,0l-.5.5a.352.352,0,1,0,.5.5l.5-.5A.352.352,0,0,0,280.969,198.093Z" transform="translate(-279.871 -197.99)" fill="#ff4f00"/>
      </g>
    </g>
  </g>
</svg>
