<svg xmlns="http://www.w3.org/2000/svg" width="26" height="19.5" viewBox="0 0 26 19.5">
  <g id="discount-voucher" transform="translate(0 -64)">
    <g id="Group_157" data-name="Group 157" transform="translate(0 64)">
      <g id="Group_156" data-name="Group 156" transform="translate(0 0)">
        <path id="Path_386" data-name="Path 386" d="M25.458,71.042A.541.541,0,0,0,26,70.5V66.167A2.169,2.169,0,0,0,23.833,64H2.167A2.169,2.169,0,0,0,0,66.167V70.5a.541.541,0,0,0,.542.542,2.708,2.708,0,1,1,0,5.417A.541.541,0,0,0,0,77v4.333A2.169,2.169,0,0,0,2.167,83.5H23.833A2.169,2.169,0,0,0,26,81.333V77a.541.541,0,0,0-.542-.542,2.708,2.708,0,1,1,0-5.417ZM21.667,73.75a3.8,3.8,0,0,0,3.25,3.753v3.83a1.085,1.085,0,0,1-1.083,1.083H2.167a1.085,1.085,0,0,1-1.083-1.083V77.5a3.792,3.792,0,0,0,0-7.506v-3.83a1.085,1.085,0,0,1,1.083-1.083H23.833a1.085,1.085,0,0,1,1.083,1.083V70A3.8,3.8,0,0,0,21.667,73.75Z" transform="translate(0 -64)" fill="#333"/>
        <path id="Path_387" data-name="Path 387" d="M128.542,104a.541.541,0,0,0-.542.542v1.219a.542.542,0,1,0,1.083,0v-1.219A.541.541,0,0,0,128.542,104Z" transform="translate(-121.5 -101.969)" fill="#333"/>
        <path id="Path_388" data-name="Path 388" d="M128.542,192a.541.541,0,0,0-.542.542v1.083a.542.542,0,0,0,1.083,0v-1.083A.541.541,0,0,0,128.542,192Z" transform="translate(-121.5 -185.5)" fill="#333"/>
        <path id="Path_389" data-name="Path 389" d="M128.542,277.333a.541.541,0,0,0-.542.542v1.083a.542.542,0,1,0,1.083,0v-1.083A.541.541,0,0,0,128.542,277.333Z" transform="translate(-121.5 -266.5)" fill="#333"/>
        <path id="Path_390" data-name="Path 390" d="M128.542,362.667a.541.541,0,0,0-.542.542v1.083a.542.542,0,0,0,1.083,0v-1.083A.541.541,0,0,0,128.542,362.667Z" transform="translate(-121.5 -347.5)" fill="#333"/>
        <path id="Path_391" data-name="Path 391" d="M220.672,149.421a.541.541,0,0,0-.751.15l-6.5,9.75a.542.542,0,1,0,.9.6l6.5-9.75A.541.541,0,0,0,220.672,149.421Z" transform="translate(-202.497 -144.997)" fill="#333"/>
        <path id="Path_392" data-name="Path 392" d="M196.333,152.042a2.221,2.221,0,1,0-2.167,2.708A2.486,2.486,0,0,0,196.333,152.042Zm-3.25,0c0-.881.5-1.625,1.083-1.625s1.083.744,1.083,1.625-.5,1.625-1.083,1.625S193.083,152.923,193.083,152.042Z" transform="translate(-182.25 -145.001)" fill="#333"/>
        <path id="Path_393" data-name="Path 393" d="M300.833,256A2.776,2.776,0,1,0,303,258.708,2.486,2.486,0,0,0,300.833,256Zm0,4.333c-.587,0-1.083-.744-1.083-1.625s.5-1.625,1.083-1.625,1.083.744,1.083,1.625S301.42,260.333,300.833,260.333Z" transform="translate(-283.499 -246.25)" fill="#333"/>
      </g>
    </g>
  </g>
</svg>
