<svg xmlns="http://www.w3.org/2000/svg" width="20.763" height="20.743" viewBox="0 0 20.763 20.743">
  <g id="money" transform="translate(0 -0.5)">
    <path id="Path_307" data-name="Path 307" d="M5.756,6.246a6.547,6.547,0,0,1,9.957.833v-.7a4.085,4.085,0,0,0-4.08-4.08H6.572V.5L0,4.641,4.71,7.609A6.529,6.529,0,0,1,5.756,6.246Zm0,0" fill="#ff3010"/>
    <path id="Path_308" data-name="Path 308" d="M140.252,339.675l-4.71-2.968a6.547,6.547,0,0,1-11,.531v.7a4.085,4.085,0,0,0,4.08,4.08h5.061v1.8Zm0,0" transform="translate(-119.488 -322.572)" fill="#ff3010"/>
    <path id="Path_309" data-name="Path 309" d="M124.707,130.274a5.324,5.324,0,1,0,5.324-5.325A5.324,5.324,0,0,0,124.707,130.274Zm3.3-.865c0-.752.546-1.385,1.638-1.538v-.726h.939v.712a3.475,3.475,0,0,1,1.351.386l-.473,1.138a2.874,2.874,0,0,0-1.3-.346c-.459,0-.606.133-.606.293,0,.559,2.576.093,2.576,1.811,0,.719-.519,1.345-1.551,1.525v.739h-.939V132.7a3.917,3.917,0,0,1-1.711-.466l.506-1.145a3.2,3.2,0,0,0,1.538.426c.446,0,.606-.093.606-.253C130.581,130.673,128,131.146,128,129.408Zm0,0" transform="translate(-119.65 -119.402)" fill="#ff3010"/>
  </g>
</svg>
