<svg xmlns="http://www.w3.org/2000/svg" width="38.901" height="43.305" viewBox="0 0 38.901 43.305">
  <g id="order" transform="translate(-24.004 0)">
    <g id="Group_2" data-name="Group 2" transform="translate(26.94 24.22)">
      <g id="Group_1" data-name="Group 1" transform="translate(0)">
        <path id="Path_14" data-name="Path 14" d="M56.738,264a.734.734,0,0,0-.734.734v2.936a.734.734,0,1,0,1.468,0v-2.936A.734.734,0,0,0,56.738,264Z" transform="translate(-56.004 -264.002)" fill="#646464"/>
      </g>
    </g>
    <g id="Group_4" data-name="Group 4" transform="translate(29.875 25.688)">
      <g id="Group_3" data-name="Group 3">
        <path id="Path_15" data-name="Path 15" d="M88.738,280a.734.734,0,0,0-.734.734v2.936a.734.734,0,0,0,1.468,0v-2.936A.734.734,0,0,0,88.738,280Z" transform="translate(-88.004 -280.002)" fill="#646464"/>
      </g>
    </g>
    <g id="Group_6" data-name="Group 6" transform="translate(48.225 28.624)">
      <g id="Group_5" data-name="Group 5">
        <path id="Path_16" data-name="Path 16" d="M297.17,313.005a.734.734,0,0,0-.822,1.215,4.4,4.4,0,1,1-2.462-.751.734.734,0,1,0,0-1.468,5.872,5.872,0,1,0,3.284,1Z" transform="translate(-288.016 -312.002)" fill="#646464"/>
      </g>
    </g>
    <g id="Group_8" data-name="Group 8" transform="translate(24.004 0)">
      <g id="Group_7" data-name="Group 7" transform="translate(0 0)">
        <path id="Path_17" data-name="Path 17" d="M62.557,32.058A8.8,8.8,0,0,0,57.765,26.5V10.276a.734.734,0,0,0-.36-.632L41.258.1a.734.734,0,0,0-.747,0L24.364,9.644c-.015.009-.026.022-.041.032s-.029.022-.043.034a.723.723,0,0,0-.162.179c0,.005-.009.008-.012.013v.005a.734.734,0,0,0-.083.24.648.648,0,0,1-.009.065.641.641,0,0,0-.01.064V29.358a.734.734,0,0,0,.36.632l16.147,9.541a.6.6,0,0,0,.059.025.581.581,0,0,0,.062.026.655.655,0,0,0,.5,0,.593.593,0,0,0,.062-.026c.019-.009.04-.014.059-.025l4.382-2.59a8.8,8.8,0,0,0,16.916-4.883ZM40.885,1.586,44.7,3.842,39.042,7.186A.734.734,0,1,0,39.79,8.45L46.145,4.7l3.816,2.255-14.7,8.686-3.816-2.255,6.148-3.633a.734.734,0,1,0-.747-1.265L30,12.531l-3.817-2.255ZM34.524,16.911v4.9l-3.792-2.241v-4.9ZM45.578,32.227a8.942,8.942,0,0,0-.242,3.188l-3.718,2.2V35.229a.734.734,0,1,0-1.468,0v2.384L25.472,28.94V11.562L29.264,13.8v6.186a.734.734,0,0,0,.36.633l5.259,3.108a.734.734,0,0,0,1.108-.632v-5.32l4.159,2.458V32.294a.734.734,0,1,0,1.468,0V20.236l13.3-7.86a.734.734,0,1,0-.747-1.264L40.885,18.965,36.7,16.492,51.4,7.8,56.3,10.694V25.982A8.772,8.772,0,0,0,45.578,32.227ZM54.1,41.835A7.339,7.339,0,1,1,61.435,34.5,7.339,7.339,0,0,1,54.1,41.835Z" transform="translate(-24.004 0)" fill="#646464"/>
      </g>
    </g>
    <g id="Group_10" data-name="Group 10" transform="translate(51.169 32.303)">
      <g id="Group_9" data-name="Group 9">
        <path id="Path_18" data-name="Path 18" d="M325.731,352.306a.734.734,0,0,0-1.02,0l-2.784,2.784-.582-.582a.734.734,0,0,0-1.038,1.038l1.1,1.1a.734.734,0,0,0,1.038,0l3.3-3.3A.734.734,0,0,0,325.731,352.306Z" transform="translate(-320.102 -352.1)" fill="#646464"/>
      </g>
    </g>
  </g>
</svg>
