<svg xmlns="http://www.w3.org/2000/svg" width="39.374" height="26.843" viewBox="0 0 39.374 26.843">
  <path id="delivery-truck" d="M32.19,638.137a3.636,3.636,0,0,0-2.566,1.058,3.562,3.562,0,0,0,0,5.1,3.65,3.65,0,0,0,2.566,1.058,3.608,3.608,0,0,0,0-7.216Zm0,5.612a2,2,0,1,1,0-4.009,2,2,0,0,1,0,4.009Zm.93-17.631a.779.779,0,0,0-.537-.208H28.47a.8.8,0,0,0-.8.8v6.574a.8.8,0,0,0,.8.8H35a.8.8,0,0,0,.8-.8v-4.4a.8.8,0,0,0-.265-.593Zm1.074,6.366H29.272v-4.979h3l1.924,1.732Zm-21.583,5.652a3.636,3.636,0,0,0-2.566,1.058,3.562,3.562,0,0,0,0,5.1,3.65,3.65,0,0,0,2.566,1.058,3.608,3.608,0,0,0,0-7.216Zm0,5.612a2,2,0,1,1,0-4.009,2,2,0,0,1,0,4.009Zm-5.348-4.626H5.652V636.99a.8.8,0,1,0-1.6,0v2.934a.8.8,0,0,0,.8.8H7.264a.8.8,0,1,0,0-1.6Zm4.065-4.37a.8.8,0,0,0-.8-.8H.8a.8.8,0,1,0,0,1.6h9.725A.8.8,0,0,0,11.329,634.754Zm-8.9-2.894,9.725.056a.809.809,0,0,0,.81-.794.794.794,0,0,0-.794-.81l-9.725-.056H2.437a.8.8,0,0,0-.008,1.6Zm1.636-3.64H13.79a.8.8,0,0,0,0-1.6H4.065a.8.8,0,0,0,0,1.6Zm35.013-1.082h0l-5.741-4.754a.79.79,0,0,0-.513-.184H26.073v-2.886a.8.8,0,0,0-.8-.8H4.851a.8.8,0,0,0-.8.8v5.869a.8.8,0,1,0,1.6,0v-5.067H24.478v19.01H17.9a.8.8,0,1,0,0,1.6h9.789a.8.8,0,1,0,0-1.6H26.081V623.8h6.462l5.227,4.329-.056,10.976h-.834a.8.8,0,0,0,0,1.6h1.628a.8.8,0,0,0,.8-.794l.064-12.154A.847.847,0,0,0,39.077,627.137Z" transform="translate(0 -618.51)" fill="#646464"/>
</svg>
