<svg xmlns="http://www.w3.org/2000/svg" width="39.12" height="39.247" viewBox="0 0 39.12 39.247">
  <g id="file" transform="translate(-7.83 -9)">
    <path id="Path_25" data-name="Path 25" d="M37.685,24.36A7.746,7.746,0,0,0,29.226,22.7V9.161a2.083,2.083,0,0,0-.614-1.483L21.548.614a2.092,2.092,0,0,0-.566-.4h0L20.951.2,20.9.173A2.1,2.1,0,0,0,20.065,0H3.046A2.219,2.219,0,0,0,.83,2.216V37.031a2.218,2.218,0,0,0,2.216,2.216H27.01a2.219,2.219,0,0,0,2.212-2.083q0-.023,0-.046V36.96a7.734,7.734,0,0,0,8.461-12.6ZM26.611,7.844h-5.06a.17.17,0,0,1-.169-.169V2.614Zm1.081,29.247a.686.686,0,0,1-.682.625H3.046a.685.685,0,0,1-.684-.685V2.216a.685.685,0,0,1,.684-.685h16.8V7.675a1.7,1.7,0,0,0,1.7,1.7h6.143V23.554a7.735,7.735,0,0,0,0,12.548v.989Zm8.91-2.877a6.2,6.2,0,1,1,1.817-4.386A6.209,6.209,0,0,1,36.6,34.214Z" transform="translate(7 9)" fill="#646464"/>
    <path id="Path_26" data-name="Path 26" d="M62.063,140.911H72.738a.766.766,0,1,0,0-1.531H62.063a.766.766,0,1,0,0,1.531Z" transform="translate(-48.837 -119.707)" fill="#646464"/>
    <path id="Path_27" data-name="Path 27" d="M75.4,319.3H62.063a.766.766,0,0,0,0,1.532H75.4a.766.766,0,1,0,0-1.532Z" transform="translate(-48.837 -285.848)" fill="#646464"/>
    <path id="Path_28" data-name="Path 28" d="M75.4,379.271H62.063a.766.766,0,1,0,0,1.531H75.4a.766.766,0,1,0,0-1.531Z" transform="translate(-48.837 -341.229)" fill="#646464"/>
    <path id="Path_29" data-name="Path 29" d="M79.706,259.326H62.063a.766.766,0,1,0,0,1.531H79.706a.766.766,0,0,0,0-1.531Z" transform="translate(-48.837 -230.468)" fill="#646464"/>
    <path id="Path_30" data-name="Path 30" d="M61.063,201.532H74.878a.766.766,0,1,0,0-1.531H61.063a.766.766,0,1,0,0,1.531Z" transform="translate(-47.913 -175.685)" fill="#646464"/>
    <circle id="Ellipse_1" data-name="Ellipse 1" cx="0.766" cy="0.766" r="0.766" transform="translate(30.009 24.314)" fill="#646464"/>
    <path id="Path_31" data-name="Path 31" d="M378.057,351.476a.766.766,0,0,0-1.083,0l-1.625,1.625-1.6-1.6a.766.766,0,1,0-1.083,1.083l1.6,1.6-1.625,1.625a.766.766,0,0,0,1.083,1.083l1.625-1.625,1.6,1.6a.766.766,0,1,0,1.083-1.083l-1.6-1.6,1.625-1.625a.766.766,0,0,0,0-1.083Z" transform="translate(-336.134 -315.355)" fill="#646464"/>
  </g>
</svg>
