<svg xmlns="http://www.w3.org/2000/svg" width="44" height="43.698" viewBox="0 0 44 43.698">
  <g id="review" transform="translate(0 -1.758)">
    <g id="Group_31" data-name="Group 31" transform="translate(8.573 25.532)">
      <g id="Group_30" data-name="Group 30">
        <path id="Path_90" data-name="Path 90" d="M101.72,278.4a1.958,1.958,0,1,0,1.958,1.958A1.961,1.961,0,0,0,101.72,278.4Zm0,2.625a.667.667,0,1,1,.667-.667A.668.668,0,0,1,101.72,281.027Z" transform="translate(-99.762 -278.402)" fill="#ff4600"/>
      </g>
    </g>
    <g id="Group_33" data-name="Group 33" transform="translate(15.718 33.445)">
      <g id="Group_32" data-name="Group 32">
        <path id="Path_91" data-name="Path 91" d="M195.437,375.015a.645.645,0,0,0-.614-.446h-3.836L189.8,370.92a.646.646,0,0,0-1.228,0l-1.185,3.648h-3.836a.646.646,0,0,0-.38,1.168l3.1,2.255-1.185,3.648a.646.646,0,0,0,.994.722l3.1-2.255,3.1,2.255a.646.646,0,0,0,.994-.722l-1.185-3.648,3.1-2.255A.645.645,0,0,0,195.437,375.015Zm-4.477,2.207a.646.646,0,0,0-.235.722l.716,2.2-1.875-1.362a.651.651,0,0,0-.759,0l-1.875,1.362.716-2.2a.646.646,0,0,0-.235-.722l-1.875-1.362h2.318a.646.646,0,0,0,.614-.446l.716-2.2.716,2.2a.646.646,0,0,0,.614.446h2.318Z" transform="translate(-182.906 -370.474)" fill="#ff4600"/>
      </g>
    </g>
    <g id="Group_35" data-name="Group 35" transform="translate(31.437 33.445)">
      <g id="Group_34" data-name="Group 34">
        <path id="Path_92" data-name="Path 92" d="M378.344,375.014a.646.646,0,0,0-.614-.446h-3.836l-1.185-3.648a.646.646,0,0,0-1.228,0l-1.185,3.648h-3.836a.646.646,0,0,0-.38,1.168l3.1,2.255L368,381.639a.646.646,0,0,0,.994.722l3.1-2.255,3.1,2.255a.646.646,0,0,0,.994-.722l-1.185-3.648,3.1-2.255A.645.645,0,0,0,378.344,375.014Zm-4.477,2.208a.646.646,0,0,0-.235.722l.716,2.2-1.875-1.362a.646.646,0,0,0-.759,0l-1.875,1.362.716-2.2a.646.646,0,0,0-.235-.722l-1.875-1.362h2.318a.646.646,0,0,0,.614-.446l.716-2.2.716,2.2a.646.646,0,0,0,.614.446h2.318Z" transform="translate(-365.813 -370.473)" fill="#ff4600"/>
      </g>
    </g>
    <g id="Group_37" data-name="Group 37" transform="translate(0 33.445)">
      <g id="Group_36" data-name="Group 36" transform="translate(0)">
        <path id="Path_93" data-name="Path 93" d="M12.531,375.015a.646.646,0,0,0-.614-.446H8.081L6.9,370.92a.646.646,0,0,0-1.228,0l-1.185,3.648H.646a.646.646,0,0,0-.38,1.168l3.1,2.255L2.184,381.64a.646.646,0,0,0,.994.722l3.1-2.255,3.1,2.255a.646.646,0,0,0,.994-.722l-1.185-3.648,3.1-2.255A.645.645,0,0,0,12.531,375.015Zm-4.477,2.207a.646.646,0,0,0-.235.722l.716,2.2-1.875-1.362a.651.651,0,0,0-.759,0l-1.875,1.362.716-2.2a.646.646,0,0,0-.235-.722L2.633,375.86H4.951a.646.646,0,0,0,.614-.446l.716-2.2.716,2.2a.646.646,0,0,0,.614.446H9.929Z" transform="translate(0 -370.474)" fill="#ff4600"/>
      </g>
    </g>
    <g id="Group_39" data-name="Group 39" transform="translate(5.511 1.758)">
      <g id="Group_38" data-name="Group 38">
        <path id="Path_94" data-name="Path 94" d="M97.387,17.858a2.925,2.925,0,0,0-1.832-5.207H85.168a11.855,11.855,0,0,0,.909-3.267c.495-3.464-.253-5.3-.967-6.235a3.446,3.446,0,0,0-2.349-1.38,1.376,1.376,0,0,0-1.526,1.318A24.507,24.507,0,0,1,80.038,9c-1.628,3.255-5.508,5.2-6.706,5.733a2.385,2.385,0,0,0-1.559-.579h-5.25a2.4,2.4,0,0,0-2.4,2.4V29.678a2.4,2.4,0,0,0,2.4,2.4h5.25a2.39,2.39,0,0,0,1.782-.8,6.114,6.114,0,0,0,3.3.91H93.731a2.925,2.925,0,0,0,2.2-4.858,2.924,2.924,0,0,0,.912-4.561,2.925,2.925,0,0,0,.548-4.91ZM71.772,30.782h-5.25a1.105,1.105,0,0,1-1.1-1.1V16.553a1.105,1.105,0,0,1,1.1-1.1h5.25a1.1,1.1,0,0,1,.788.332v14.4a.643.643,0,0,0,.04.224A1.1,1.1,0,0,1,71.772,30.782ZM92.842,18.5h2.714a1.635,1.635,0,1,1,0,3.27H92.842a.646.646,0,1,0,0,1.292h1.8a1.635,1.635,0,0,1,0,3.27h-2.3a.646.646,0,1,0,0,1.292h1.384a1.635,1.635,0,0,1,0,3.27H76.855a4.777,4.777,0,0,1-2.727-.782,2.4,2.4,0,0,0,.04-.436V16.553a2.386,2.386,0,0,0-.112-.724c1.513-.694,5.387-2.748,7.137-6.248.875-1.75,1.312-6.208,1.33-6.4,0-.02,0-.041,0-.062a.071.071,0,0,1,.025-.055A.064.064,0,0,1,82.6,3.05a2.172,2.172,0,0,1,1.48.884c.564.736,1.145,2.247.714,5.267a8.285,8.285,0,0,1-1.238,3.687.651.651,0,0,0,.5,1.055h11.5a1.635,1.635,0,0,1,0,3.27H92.842a.646.646,0,1,0,0,1.291Z" transform="translate(-64.126 -1.758)" fill="#ff4600"/>
      </g>
    </g>
  </g>
</svg>
