<svg xmlns="http://www.w3.org/2000/svg" width="40" height="40.001" viewBox="0 0 40 40.001">
  <g id="packaging" transform="translate(-0.007)">
    <g id="Group_12" data-name="Group 12" transform="translate(0.007)">
      <g id="Group_11" data-name="Group 11" transform="translate(0)">
        <path id="Path_19" data-name="Path 19" d="M39.673,20.617l-5.667-3.283,5.667-3.283a.665.665,0,0,0,0-1.153L27.006,5.564a.667.667,0,0,0-.667,0l-1.333.771a.667.667,0,1,0,.618,1.181l.049-.028,1-.578,11.334,6.564-5.333,3.089L24.622,11.9l.6-.853A.667.667,0,0,0,24.673,10h-2a10.012,10.012,0,0,0-10-10H6.006a.667.667,0,1,0,0,1.333h6.667A8.677,8.677,0,0,1,21.34,10v.667a.667.667,0,0,0,.667.667h1.387l-3.387,4.837-3.387-4.837h1.387a.667.667,0,0,0,.667-.667V9.334a4,4,0,0,0-4-4H11.339a.667.667,0,1,0,0,1.333h3.333a2.667,2.667,0,0,1,2.667,2.667V10h-2a.667.667,0,0,0-.546,1.049l.6.853L7.339,16.564,2.006,13.474l8.458-4.9A.667.667,0,0,0,9.846,7.4L9.8,7.423.339,12.9a.667.667,0,0,0,0,1.153l5.667,3.283L.339,20.617a.667.667,0,0,0,0,1.153l6.333,3.667V32a.667.667,0,0,0,.333.577l12.667,7.334c.015.009.033.013.049.021s.037.016.056.023a.591.591,0,0,0,.457,0l.056-.023a.5.5,0,0,0,.049-.021l12.667-7.334A.667.667,0,0,0,33.34,32V25.437l6.333-3.667a.667.667,0,0,0,0-1.153Zm-37.668.576L7.339,18.1l11.334,6.564-5.333,3.089ZM19.339,38.178,8.006,31.617V26.209l5,2.894a.667.667,0,0,0,.667,0l5.667-3.28ZM20.006,23.9,8.673,17.334,16.161,13l3.3,4.715a.667.667,0,0,0,1.092,0L23.855,13l7.488,4.333Zm12,7.72L20.673,38.178V25.823L26.34,29.1a.667.667,0,0,0,.667,0l5-2.894Zm-5.333-3.86-5.333-3.089L32.673,18.1l5.333,3.089Z" transform="translate(-0.007)" fill="#646464"/>
      </g>
    </g>
    <g id="Group_14" data-name="Group 14" transform="translate(6.672 5.333)">
      <g id="Group_13" data-name="Group 13">
        <path id="Path_20" data-name="Path 20" d="M81.994,64H80.661a.667.667,0,0,0,0,1.333h1.333a.667.667,0,1,0,0-1.333Z" transform="translate(-79.994 -64)" fill="#646464"/>
      </g>
    </g>
    <g id="Group_16" data-name="Group 16" transform="translate(1.339)">
      <g id="Group_15" data-name="Group 15">
        <path id="Path_21" data-name="Path 21" d="M17.994,0H16.661a.667.667,0,1,0,0,1.333h1.333a.667.667,0,1,0,0-1.333Z" transform="translate(-15.994)" fill="#646464"/>
      </g>
    </g>
    <g id="Group_18" data-name="Group 18" transform="translate(4.006 2.667)">
      <g id="Group_17" data-name="Group 17">
        <path id="Path_22" data-name="Path 22" d="M53.994,32H48.661a.667.667,0,1,0,0,1.333h5.333a.667.667,0,1,0,0-1.333Z" transform="translate(-47.994 -32)" fill="#646464"/>
      </g>
    </g>
    <g id="Group_20" data-name="Group 20" transform="translate(29.34 28.667)">
      <g id="Group_19" data-name="Group 19">
        <path id="Path_23" data-name="Path 23" d="M352.661,344a.667.667,0,0,0-.667.667V346a.667.667,0,0,0,1.333,0v-1.333A.667.667,0,0,0,352.661,344Z" transform="translate(-351.994 -344)" fill="#646464"/>
      </g>
    </g>
    <g id="Group_22" data-name="Group 22" transform="translate(26.673 30.001)">
      <g id="Group_21" data-name="Group 21">
        <path id="Path_24" data-name="Path 24" d="M320.661,360a.667.667,0,0,0-.667.667V362a.667.667,0,1,0,1.333,0v-1.333A.667.667,0,0,0,320.661,360Z" transform="translate(-319.994 -360)" fill="#646464"/>
      </g>
    </g>
  </g>
</svg>
