<svg id="Group_82" data-name="Group 82" xmlns="http://www.w3.org/2000/svg" width="13.664" height="15.69" viewBox="0 0 13.664 15.69">
  <g id="Group_81" data-name="Group 81">
    <path id="Path_120" data-name="Path 120" d="M46.664,4.33l-.012-.02a.741.741,0,0,0-.055-.1L44.414.441A.885.885,0,0,0,43.65,0H36.138a.885.885,0,0,0-.765.442L33.155,4.29a.46.46,0,0,0-.045.108.777.777,0,0,0-.048.27v9.94a1.083,1.083,0,0,0,1.081,1.081h11.5a1.083,1.083,0,0,0,1.081-1.081V4.632c0-.013,0-.027,0-.04A.458.458,0,0,0,46.664,4.33ZM40.369.92h3.259l1.717,2.969H40.369Zm-4.21,0h3.29V3.888h-5Zm9.647,13.689a.162.162,0,0,1-.162.162h-11.5a.162.162,0,0,1-.162-.162v-9.8H45.806Z" transform="translate(-33.062)" fill="#ff8000"/>
  </g>
</svg>
