<svg xmlns="http://www.w3.org/2000/svg" width="40" height="28.1" viewBox="0 0 40 28.1">
  <g id="atm-card" transform="translate(0 4.75)">
    <path id="Path_1" data-name="Path 1" d="M40,.25a5,5,0,0,0-5-5H5a5,5,0,0,0-5,5v18.1a5,5,0,0,0,5,5H35a5,5,0,0,0,5-5Zm-35-3H35A3.042,3.042,0,0,1,38,.3V.55H2V.3A3.042,3.042,0,0,1,5-2.75Zm33,5.3v3.5H2V2.55Zm-3,18.9H5A3.042,3.042,0,0,1,2,18.4V8.05H38V18.4A3.042,3.042,0,0,1,35,21.45Zm0,0" fill="#646464"/>
    <path id="Path_2" data-name="Path 2" d="M69.328,184.5a4.285,4.285,0,0,0-2.134.569,4.305,4.305,0,1,0,0,7.473,4.3,4.3,0,1,0,2.134-8.042ZM67.023,188.8a2.3,2.3,0,0,1,.171-.869,2.3,2.3,0,0,1,0,1.738,2.3,2.3,0,0,1-.171-.869Zm-4.268,0a2.3,2.3,0,0,1,2.892-2.229,4.3,4.3,0,0,0,0,4.458,2.3,2.3,0,0,1-2.892-2.229Zm6.574,2.305a2.281,2.281,0,0,1-.587-.076,4.3,4.3,0,0,0,0-4.458,2.3,2.3,0,1,1,.587,4.534Zm0,0" transform="translate(-55.89 -174.106)" fill="#646464"/>
  </g>
</svg>
