<svg xmlns="http://www.w3.org/2000/svg" width="38.552" height="39.833" viewBox="0 0 38.552 39.833">
  <g id="man-walking-with-shopping-cart" transform="translate(433.869 88.493)">
    <g id="Group_52" data-name="Group 52" transform="translate(-442.192 -88.493)">
      <circle id="Ellipse_11" data-name="Ellipse 11" cx="2.174" cy="2.174" r="2.174" transform="translate(12.526 35.319)" fill="#646464"/>
      <circle id="Ellipse_12" data-name="Ellipse 12" cx="2.174" cy="2.174" r="2.174" transform="translate(22.773 35.319)" fill="#646464"/>
      <path id="Path_101" data-name="Path 101" d="M8.326,234.152l4.466,12.878c.018.1.116.295.22.3H26.717a.208.208,0,0,0,.2-.186s.01-14.931.01-15.027a.193.193,0,0,1,.188-.188h1.656a.188.188,0,0,0,.188-.188v-1.068a.188.188,0,0,0-.188-.188H25.5a.188.188,0,0,0-.188.188v3.078a.188.188,0,0,1-.188.188H8.482A.18.18,0,0,0,8.326,234.152ZM25.39,244.8a.188.188,0,0,1-.188.188H13.731a.188.188,0,0,1-.188-.188v-.941a.188.188,0,0,1,.188-.188H25.2a.188.188,0,0,1,.188.188v.941Zm0-2.506a.188.188,0,0,1-.188.188H12.714a.188.188,0,0,1-.188-.188v-.941a.188.188,0,0,1,.188-.188H25.2a.188.188,0,0,1,.188.188v.941Zm0-2.483A.188.188,0,0,1,25.2,240H11.846a.188.188,0,0,1-.188-.188v-.941a.188.188,0,0,1,.188-.188H25.2a.188.188,0,0,1,.188.188v.941Zm-14.577-3.374a.188.188,0,0,1,.188-.188H25.2a.188.188,0,0,1,.188.188v.941a.188.188,0,0,1-.188.188H11a.188.188,0,0,1-.188-.188Z" transform="translate(0 -212.749)" fill="#646464"/>
      <circle id="Ellipse_13" data-name="Ellipse 13" cx="3.231" cy="3.231" r="3.231" transform="translate(32.548 0)" fill="#646464"/>
      <path id="Path_102" data-name="Path 102" d="M275.838,118.851a1.615,1.615,0,0,0,3.134-.781l-4.052-16.258c.427-.14,1.182-.639.966-2.2l-2.207-12.1a.684.684,0,0,0-.777-.574l-4.985.958c-.04.006-.079.013-.119.022l-.07.013a.63.63,0,0,0-.142.045,1.644,1.644,0,0,0-.95.875l-1.956,4.423s-2.3.54-2.719.641l-.895.209a1.614,1.614,0,1,0,.733,3.144l2.9-.676a1.562,1.562,0,0,0,.224-.077l1.324-.312a1.652,1.652,0,0,0,1.118-.929l.735-1.628,1.327,7.477-4.474,6.28a1.613,1.613,0,0,0-.3.825l-.7,10.118a1.615,1.615,0,0,0,1.5,1.722c.038,0,.075,0,.113,0a1.615,1.615,0,0,0,1.609-1.5l.668-9.664,4.087-5.736Z" transform="translate(-232.145 -80.242)" fill="#646464"/>
    </g>
  </g>
</svg>
