<svg xmlns="http://www.w3.org/2000/svg" width="17.901" height="16.549" viewBox="0 0 17.901 16.549">
  <g id="passage-of-time" transform="translate(0 -1.775)">
    <g id="Layer_1_65_" transform="translate(0 1.775)">
      <g id="Group_130" data-name="Group 130">
        <path id="Path_294" data-name="Path 294" d="M17.865,8.762a.377.377,0,0,0-.341-.217H16.409a8.268,8.268,0,1,0-.968,5.644.752.752,0,0,0-1.3-.754,6.777,6.777,0,1,1,.731-4.89H13.764a.376.376,0,0,0-.289.617l1.881,2.257a.376.376,0,0,0,.578,0l1.881-2.257A.376.376,0,0,0,17.865,8.762Z" transform="translate(0 -1.775)" fill="#ff4f00"/>
        <path id="Path_295" data-name="Path 295" d="M19.586,6.713a.752.752,0,0,0-.752.752v4.564a1.315,1.315,0,0,0,.753,2.394,1.3,1.3,0,0,0,.555-.127l2.617,1.51a.744.744,0,0,0,.376.1.752.752,0,0,0,.376-1.4l-2.619-1.512a1.31,1.31,0,0,0-.552-.962V7.465A.754.754,0,0,0,19.586,6.713Zm0,6.958a.564.564,0,1,1,.564-.564A.565.565,0,0,1,19.586,13.671Z" transform="translate(-11.312 -4.832)" fill="#ff4f00"/>
      </g>
    </g>
  </g>
</svg>
