<svg id="Layer_1" height="512" viewBox="0 0 128 128" width="512" xmlns="http://www.w3.org/2000/svg" data-name="Layer 1"><path d="m64 46.851a21.667 21.667 0 1 0 21.667 21.666 21.691 21.691 0 0 0 -21.667-21.666zm0 39.833a18.167 18.167 0 1 1 18.167-18.167 18.187 18.187 0 0 1 -18.167 18.167z"/><path d="m112.087 36.351h-25.723l-5.5-9.932a1.751 1.751 0 0 0 -1.531-.9h-30.666a1.751 1.751 0 0 0 -1.531.9l-5.5 9.932h-4.386v-5.251a1.75 1.75 0 0 0 -1.75-1.75h-15a1.75 1.75 0 0 0 -1.75 1.75v5.25h-2.837a8.173 8.173 0 0 0 -8.163 8.164v49.806a8.173 8.173 0 0 0 8.163 8.163h96.174a8.173 8.173 0 0 0 8.163-8.163v-49.806a8.173 8.173 0 0 0 -8.163-8.163zm-89.837-3.5h11.5v3.5h-11.5zm94.5 61.47a4.668 4.668 0 0 1 -4.663 4.663h-96.174a4.668 4.668 0 0 1 -4.663-4.664v-49.806a4.668 4.668 0 0 1 4.663-4.663h26.754a1.751 1.751 0 0 0 1.531-.9l5.5-9.932h28.602l5.5 9.932a1.751 1.751 0 0 0 1.531.9h26.754a4.668 4.668 0 0 1 4.663 4.663z"/><path d="m109.5 44.351h-11a1.75 1.75 0 0 0 -1.75 1.75v11a1.75 1.75 0 0 0 1.75 1.75h11a1.75 1.75 0 0 0 1.75-1.75v-11a1.75 1.75 0 0 0 -1.75-1.75zm-1.75 11h-7.5v-7.5h7.5z"/><path d="m64 40.187a28.331 28.331 0 1 0 28.33 28.33 28.362 28.362 0 0 0 -28.33-28.33zm0 53.161a24.831 24.831 0 1 1 24.83-24.831 24.859 24.859 0 0 1 -24.83 24.831z"/><path d="m64 54.048a1.75 1.75 0 0 0 0 3.5 10.982 10.982 0 0 1 10.969 10.969 1.75 1.75 0 1 0 3.5 0 14.485 14.485 0 0 0 -14.469-14.469z"/></svg>