<svg xmlns="http://www.w3.org/2000/svg" width="25.999" height="21.981" viewBox="0 0 25.999 21.981"><defs><style>.a{fill:#333;}</style></defs><g transform="translate(0 -39.568)"><g transform="translate(0 51.932)"><path class="a" d="M15.516,289.529h-1.97a.508.508,0,0,0,0,1.016h1.97a.551.551,0,1,1,0,1.1h-5.3a2.668,2.668,0,0,1-2.057-.964l-1.268-1.524a3.679,3.679,0,0,0-2.731-1.328v-3h1.87a3.522,3.522,0,0,1,2.458.993l2.737,2.642a.5.5,0,0,1-.684.727l-2.149-1.97a.508.508,0,1,0-.686.749l2.149,1.97a1.514,1.514,0,0,0,2.075-2.206l-2.737-2.642a4.533,4.533,0,0,0-3.163-1.278H4.058a1.26,1.26,0,0,0-1.16-.77H.508a.508.508,0,0,0-.508.508v3.713a.508.508,0,0,0,1.015,0v-3.205H2.9a.243.243,0,0,1,.243.243v4.07a.243.243,0,0,1-.243.243H2.37a.508.508,0,1,0,0,1.015H2.9a1.26,1.26,0,0,0,1.167-.789,2.668,2.668,0,0,1,2.041.964l1.268,1.525a3.681,3.681,0,0,0,2.837,1.33h5.3a1.567,1.567,0,1,0,0-3.134Z" transform="translate(0 -283.046)"/></g><g transform="translate(8.916 39.568)"><g transform="translate(0 0)"><path class="a" d="M192.165,44.258a.508.508,0,0,0-.508.508v3.4h-1.882a.243.243,0,0,1-.243-.243v-4.07a.243.243,0,0,1,.243-.243h.49a.508.508,0,1,0,0-1.015h-.49a1.26,1.26,0,0,0-1.167.789,2.668,2.668,0,0,1-2.041-.964L185.3,40.9a3.681,3.681,0,0,0-2.837-1.33h-5.3a1.567,1.567,0,1,0,0,3.134h2.169a.508.508,0,0,0,0-1.015h-2.169a.551.551,0,1,1,0-1.1h5.3a2.668,2.668,0,0,1,2.057.964l1.268,1.524a3.679,3.679,0,0,0,2.731,1.328v3h-1.87a3.522,3.522,0,0,1-2.458-.993l-2.737-2.642a.5.5,0,0,1,.684-.727l2.149,1.97a.508.508,0,1,0,.686-.749l-2.149-1.97a1.514,1.514,0,0,0-2.075,2.206l2.737,2.642a4.533,4.533,0,0,0,3.163,1.278h1.968a1.261,1.261,0,0,0,1.16.77h2.39a.508.508,0,0,0,.508-.508V44.766A.508.508,0,0,0,192.165,44.258Z" transform="translate(-175.59 -39.568)"/></g></g><g transform="translate(15.418 56.538)"><g transform="translate(0 0)"><path class="a" d="M304.593,374.051a.513.513,0,1,0-.265.677l.011,0A.508.508,0,0,0,304.593,374.051Z" transform="translate(-303.617 -373.752)"/></g></g><g transform="translate(16.737 55.776)"><g transform="translate(0 0)"><path class="a" d="M330.522,358.963a.51.51,0,1,0-.111.712l.006,0A.505.505,0,0,0,330.522,358.963Z" transform="translate(-329.603 -358.757)"/></g></g><g transform="translate(13.965 57.004)"><g transform="translate(0 0)"><path class="a" d="M276.025,383.343a.512.512,0,1,0-.406.6l.015,0A.507.507,0,0,0,276.025,383.343Z" transform="translate(-275.016 -382.94)"/></g></g><g transform="translate(17.865 54.747)"><path class="a" d="M352.671,338.618a.508.508,0,0,0-.717.037l-.011.012a.508.508,0,1,0,.728-.049Zm-.284.428-.056-.051.061.055Z" transform="translate(-351.819 -338.487)"/></g><g transform="translate(19.353 52.104)"><g transform="translate(0 0)"><path class="a" d="M381.765,286.464a.51.51,0,1,0,.337.639l0-.007A.506.506,0,0,0,381.765,286.464Z" transform="translate(-381.109 -286.443)"/></g></g><g transform="translate(19.651 49.083)"><path class="a" d="M387.988,227.362l0-.019a.513.513,0,1,0,0,.019Z" transform="translate(-386.979 -226.939)"/></g><g transform="translate(19.641 50.605)"><g transform="translate(0 0)"><path class="a" d="M387.336,256.925a.508.508,0,0,0-.55.461s0,.015,0,.02a.508.508,0,0,0,.477.537h.03a.51.51,0,0,0,.045-1.019Z" transform="translate(-386.783 -256.923)"/></g></g><g transform="translate(18.751 53.505)"><path class="a" d="M370.02,314.09a.508.508,0,0,0-.692.191l-.007.013a.509.509,0,0,0,.446.753.5.5,0,0,0,.444-.264l-.441-.251.442.25A.508.508,0,0,0,370.02,314.09Z" transform="translate(-369.259 -314.024)"/></g><g transform="translate(9.338 43.62)"><path class="a" d="M184.862,119.65a.508.508,0,0,0-.681-.227l0,0a.508.508,0,1,0,.686.225Z" transform="translate(-183.898 -119.37)"/></g><g transform="translate(10.765 43.09)"><g transform="translate(0 0)"><path class="a" d="M212.994,109.306a.508.508,0,0,0-.613-.374l-.012,0a.508.508,0,1,0,.625.371Z" transform="translate(-211.987 -108.918)"/></g></g><g transform="translate(8.054 44.444)"><g transform="translate(0 0)"><path class="a" d="M159.506,135.784a.508.508,0,0,0-.714-.077l.315.4-.316-.4a.508.508,0,0,0,.633.794l.007-.005A.507.507,0,0,0,159.506,135.784Z" transform="translate(-158.599 -135.595)"/></g></g><g transform="translate(5.61 48.228)"><g transform="translate(0 0)"><path class="a" d="M111.129,210.124a.508.508,0,0,0-.623.356l0,.019a.508.508,0,1,0,.628-.375Z" transform="translate(-110.487 -210.106)"/></g></g><g transform="translate(5.392 49.737)"><g transform="translate(0 0)"><path class="a" d="M106.728,239.825a.508.508,0,0,0-.536.478c0,.007,0,.013,0,.02a.507.507,0,0,0,.492.522h.015a.51.51,0,0,0,.029-1.019Z" transform="translate(-106.191 -239.824)"/></g></g><g transform="translate(6.146 46.8)"><g transform="translate(0 0)"><path class="a" d="M121.783,182.047a.508.508,0,0,0-.685.214l-.008.016a.508.508,0,1,0,.694-.23Z" transform="translate(-121.037 -181.989)"/></g></g><g transform="translate(6.974 45.52)"><g transform="translate(0 0)"><path class="a" d="M138.174,156.89a.508.508,0,0,0-.715.066l-.01.013a.508.508,0,1,0,.725-.079Z" transform="translate(-137.339 -156.773)"/></g></g><g transform="translate(5.496 51.259)"><path class="a" d="M109.237,270.209a.508.508,0,1,0-1,.179v0a.5.5,0,0,0,.5.416.517.517,0,0,0,.091-.008A.51.51,0,0,0,109.237,270.209Z" transform="translate(-108.23 -269.791)"/></g><g transform="translate(8.966 47.823)"><g transform="translate(0 0)"><path class="a" d="M182.343,202.125a2.351,2.351,0,0,0-1.71.732,2.358,2.358,0,1,0-3.219,3.437l.01.008,2.893,2.291a.508.508,0,0,0,.631,0l3.016-2.4a.5.5,0,0,0,.042-.038,2.358,2.358,0,0,0-1.665-4.027Zm.966,3.29-2.677,2.132-2.572-2.036a1.342,1.342,0,1,1,2.1-1.541.508.508,0,0,0,.938,0,1.342,1.342,0,1,1,2.207,1.445Z" transform="translate(-176.566 -202.125)"/></g></g><g transform="translate(0.002 57.505)"><circle class="a" cx="0.506" cy="0.506" r="0.506"/></g><g transform="translate(24.985 42.6)"><g transform="translate(0 0)"><circle class="a" cx="0.506" cy="0.506" r="0.506"/></g></g></g></svg>