<svg xmlns="http://www.w3.org/2000/svg" width="26" height="26" viewBox="0 0 26 26" fill="#333">
    <g transform="translate(0 -0.001)">
        <g transform="translate(0 0.001)">
            <path class="a"
                d="M24.669,10.272l-1.825-.31a10.3,10.3,0,0,0-.733-1.771l1.075-1.5a1.6,1.6,0,0,0-.174-2.069L21.394,3a1.594,1.594,0,0,0-1.135-.473,1.578,1.578,0,0,0-.929.3L17.82,3.9a10.2,10.2,0,0,0-1.836-.755l-.3-1.8A1.6,1.6,0,0,0,14.094,0H11.808a1.6,1.6,0,0,0-1.586,1.342L9.907,3.189a10.051,10.051,0,0,0-1.765.744L6.648,2.858a1.6,1.6,0,0,0-2.069.174L2.955,4.65A1.608,1.608,0,0,0,2.781,6.72L3.867,8.246a10.065,10.065,0,0,0-.722,1.776l-1.8.3A1.6,1.6,0,0,0,0,11.912V14.2a1.6,1.6,0,0,0,1.342,1.586l1.847.315a10.051,10.051,0,0,0,.744,1.765l-1.07,1.488a1.6,1.6,0,0,0,.174,2.069l1.619,1.619a1.594,1.594,0,0,0,1.135.473,1.578,1.578,0,0,0,.929-.3l1.526-1.086a10.275,10.275,0,0,0,1.716.706l.3,1.825A1.6,1.6,0,0,0,11.851,26h2.292a1.6,1.6,0,0,0,1.586-1.342l.31-1.825a10.3,10.3,0,0,0,1.771-.733l1.5,1.075a1.6,1.6,0,0,0,.934.3h0A1.594,1.594,0,0,0,21.383,23L23,21.384a1.608,1.608,0,0,0,.174-2.069L22.1,17.8a10.23,10.23,0,0,0,.733-1.771l1.825-.3A1.6,1.6,0,0,0,26,14.144V11.858A1.585,1.585,0,0,0,24.669,10.272Zm-.125,3.873a.141.141,0,0,1-.119.141l-2.281.38a.729.729,0,0,0-.587.538,8.7,8.7,0,0,1-.945,2.276.734.734,0,0,0,.033.8l1.342,1.89a.148.148,0,0,1-.016.185l-1.619,1.619a.138.138,0,0,1-.1.043.133.133,0,0,1-.081-.027l-1.885-1.342a.734.734,0,0,0-.8-.033,8.7,8.7,0,0,1-2.276.945.721.721,0,0,0-.538.587l-.386,2.281a.141.141,0,0,1-.141.119H11.857a.141.141,0,0,1-.141-.119l-.38-2.281a.729.729,0,0,0-.538-.587,9.028,9.028,0,0,1-2.227-.912.752.752,0,0,0-.369-.1.715.715,0,0,0-.424.136l-1.9,1.352a.162.162,0,0,1-.081.027.146.146,0,0,1-.1-.043L4.073,20.4a.147.147,0,0,1-.016-.185l1.336-1.874a.744.744,0,0,0,.033-.8,8.613,8.613,0,0,1-.956-2.27.744.744,0,0,0-.587-.538l-2.3-.391a.141.141,0,0,1-.119-.141V11.912a.141.141,0,0,1,.119-.141l2.265-.38a.734.734,0,0,0,.592-.543,8.686,8.686,0,0,1,.929-2.281.725.725,0,0,0-.038-.793l-1.352-1.9A.148.148,0,0,1,4,5.688L5.616,4.069a.138.138,0,0,1,.1-.043.133.133,0,0,1,.081.027L7.674,5.389a.744.744,0,0,0,.8.033,8.613,8.613,0,0,1,2.27-.956.744.744,0,0,0,.538-.587l.391-2.3a.141.141,0,0,1,.141-.119h2.287a.141.141,0,0,1,.141.119l.38,2.265a.734.734,0,0,0,.543.592,8.816,8.816,0,0,1,2.33.956.734.734,0,0,0,.8-.033l1.874-1.347a.162.162,0,0,1,.081-.027.146.146,0,0,1,.1.043L21.975,5.65a.147.147,0,0,1,.016.185L20.65,7.719a.734.734,0,0,0-.033.8,8.7,8.7,0,0,1,.945,2.276.721.721,0,0,0,.587.538l2.281.386a.141.141,0,0,1,.119.141v2.287Z"
                transform="translate(0 -0.001)" />
            <path class="a"
                d="M141.711,136a5.611,5.611,0,1,0,5.611,5.611A5.614,5.614,0,0,0,141.711,136Zm0,9.755a4.144,4.144,0,1,1,4.144-4.144A4.147,4.147,0,0,1,141.711,145.756Z"
                transform="translate(-128.708 -128.614)" />
        </g>
    </g>
</svg>