<svg xmlns="http://www.w3.org/2000/svg" width="26" height="24.995" viewBox="0 0 26 24.995"><defs><style>.a{fill:#646464;}</style></defs><g transform="translate(-0.001 -0.603)"><g transform="translate(0.001 0.603)"><path class="a" d="M13.321,2.359a11.389,11.389,0,0,0-8.1,19.4c-.362.464-.918,1.174-1.681,2.154a1.228,1.228,0,0,0,1.938,1.51S6.5,24.1,7.126,23.3a11.351,11.351,0,0,0,12.392,0c.622.8,1.649,2.115,1.649,2.115a1.228,1.228,0,0,0,1.937-1.51c-.763-.98-1.319-1.691-1.681-2.155a11.389,11.389,0,0,0-8.1-19.394ZM4.125,13.75a9.2,9.2,0,1,1,9.2,9.2A9.208,9.208,0,0,1,4.125,13.75Z" transform="translate(-0.321 -0.895)"/><path class="a" d="M14.824,13.384l.006-3.194a.731.731,0,1,0-1.463,0l-.006,3.173a1.73,1.73,0,0,0-.878.9l-5.3-.01a.731.731,0,0,0,0,1.463l5.364.009a1.72,1.72,0,1,0,2.275-2.337Z" transform="translate(-1.074 -2.075)"/><path class="a" d="M1.32,1.9a4.464,4.464,0,0,0-.231,6.089L7.412,1.714A4.466,4.466,0,0,0,1.32,1.9Z" transform="translate(-0.001 -0.603)"/><path class="a" d="M28.389,1.9A4.468,4.468,0,0,0,22.3,1.715l6.321,6.271A4.467,4.467,0,0,0,28.389,1.9Z" transform="translate(-3.706 -0.603)"/></g></g></svg>