<svg xmlns="http://www.w3.org/2000/svg" width="26" height="26" viewBox="0 0 26 26" fill="#333">
    <g transform="translate(0 -0.001)">
        <g transform="translate(0 0.001)">
            <g transform="translate(0 0)">
                <path class="a"
                    d="M22.193,3.808A13,13,0,0,0,6.4,1.8L4.825.224a.762.762,0,0,0-1.3.539V4.407a.762.762,0,0,0,.762.762H7.931a.762.762,0,0,0,.539-1.3l-.952-.952A11.478,11.478,0,1,1,1.523,13,.762.762,0,1,0,0,13a13,13,0,0,0,22.193,9.192,13,13,0,0,0,0-18.385Z"
                    transform="translate(0 -0.001)" />
            </g>
        </g>
        <g transform="translate(12.238 7.344)">
            <path class="a"
                d="M246.657,149.5h-4.134v-4.134a.762.762,0,1,0-1.523,0v4.9a.762.762,0,0,0,.762.762h4.9a.762.762,0,1,0,0-1.523Z"
                transform="translate(-241 -144.601)" />
        </g>
    </g>
</svg>