<svg xmlns="http://www.w3.org/2000/svg" width="26" height="22.858" viewBox="0 0 26 22.858" fill="#333">
    <g transform="translate(0 -28.501)">
        <path class="a"
            d="M23.9,30.623a7.2,7.2,0,0,0-10.181.006l-.711.711-.722-.722a7.192,7.192,0,0,0-10.181-.011,7.192,7.192,0,0,0,.011,10.181L12.469,51.139a.739.739,0,0,0,1.047.006L23.889,40.809A7.212,7.212,0,0,0,23.9,30.623Zm-1.058,9.133-9.85,9.811L3.164,39.74a5.706,5.706,0,1,1,8.069-8.069l1.246,1.246a.742.742,0,0,0,1.053,0l1.235-1.235a5.71,5.71,0,0,1,8.075,8.075Z"
            transform="translate(0 0)" />
    </g>
</svg>