<svg xmlns="http://www.w3.org/2000/svg" width="25.999" height="25.999" viewBox="0 0 25.999 25.999"><defs><style>.a{fill:#333;}</style></defs><g transform="translate(0 0)"><g transform="translate(5.874 4.712)"><path class="a" d="M117.3,96.086a.508.508,0,0,1,0-1.016.633.633,0,1,0-.621-.756.508.508,0,1,1-1-.2,1.649,1.649,0,1,1,1.618,1.968Z" transform="translate(-115.676 -92.788)"/></g><g transform="translate(5.853 6.994)"><path class="a" d="M116.906,141.024a1.648,1.648,0,0,1-1.649-1.649.508.508,0,1,1,1.016,0,.645.645,0,0,0,.006.089.633.633,0,1,0,.627-.722.508.508,0,1,1,0-1.016,1.649,1.649,0,0,1,0,3.3Z" transform="translate(-115.257 -137.726)"/></g><g transform="translate(9.137 15.521)"><path class="a" d="M181.4,311.122a.508.508,0,0,1-.508-.508v-3.951h-.445a.508.508,0,1,1,0-1.016h.953a.508.508,0,0,1,.508.508v4.459A.508.508,0,0,1,181.4,311.122Z" transform="translate(-179.935 -305.647)"/></g><g transform="translate(16.765 6.555)"><path class="a" d="M331.675,134.655a3.7,3.7,0,0,1-1-.044.528.528,0,0,1-.343-.348c-.087-.281.041-.449.321-.815.226-.3.648-.848,1.354-1.857a2.469,2.469,0,0,0,.39-.769l.014-.108a.633.633,0,0,0-1.254-.1.508.508,0,1,1-1-.2,1.649,1.649,0,0,1,3.267.319.516.516,0,0,1,0,.064l-.022.173a.5.5,0,0,1-.009.05,3.392,3.392,0,0,1-.553,1.145c-.465.664-.809,1.135-1.057,1.466.395,0,.871,0,1.319-.01a.508.508,0,1,1,.013,1.016C332.48,134.652,332.016,134.655,331.675,134.655Z" transform="translate(-330.153 -129.092)"/></g><path class="a" d="M25.308,12.484A7.424,7.424,0,0,0,26,9.336a7.509,7.509,0,0,0-5.031-7.085.508.508,0,0,0-.334.959,6.493,6.493,0,0,1,4.349,6.126,6.419,6.419,0,0,1-.68,2.895.508.508,0,0,0-.022.4l.482,1.308H23.269a.508.508,0,0,0-.347.137,6.487,6.487,0,0,1-9.989-1.408,7.492,7.492,0,0,0,1.387-8.3A6.438,6.438,0,0,1,16.361,3.21a.508.508,0,0,0-.334-.959,7.442,7.442,0,0,0-2.2,1.217A7.5,7.5,0,0,0,0,7.5,7.425,7.425,0,0,0,.691,10.65l-.659,1.79a.508.508,0,0,0,.477.683H2.534a7.5,7.5,0,0,0,1.39.974A7.216,7.216,0,0,0,8.845,24.259L10.023,25.8a.508.508,0,0,0,.807,0l1.177-1.541a7.223,7.223,0,0,0,5.631-7.038c0-.159-.005-.3-.015-.434a7.572,7.572,0,0,0,.875.051,7.474,7.474,0,0,0,4.967-1.88h2.026a.508.508,0,0,0,.477-.683ZM2.73,12.107H1.236L1.718,10.8a.508.508,0,0,0-.022-.4A6.419,6.419,0,0,1,1.016,7.5a6.486,6.486,0,1,1,2.061,4.742.508.508,0,0,0-.347-.137Zm13.892,5.114a6.2,6.2,0,0,1-5,6.081.508.508,0,0,0-.306.19l-.888,1.162-.888-1.162a.508.508,0,0,0-.306-.19A6.2,6.2,0,0,1,4.848,14.52a7.5,7.5,0,0,0,7.323-1.151,7.481,7.481,0,0,0,4.411,3.222A4.545,4.545,0,0,1,16.622,17.221Z" transform="translate(0 0)"/><g transform="translate(17.99 1.836)"><path class="a" d="M354.795,37.176a.508.508,0,1,1,.5-.417A.512.512,0,0,1,354.795,37.176Z" transform="translate(-354.288 -36.162)"/></g></g></svg>