<svg xmlns="http://www.w3.org/2000/svg" width="23.625" height="27" viewBox="0 0 23.625 27"><defs><style>.a{fill:#ff4600;}</style></defs><g transform="translate(-34.445)"><path class="a" d="M144.532,13.5a6.75,6.75,0,1,1,6.75-6.75A6.758,6.758,0,0,1,144.532,13.5Zm0-11.812a5.063,5.063,0,1,0,5.063,5.063,5.068,5.068,0,0,0-5.062-5.063Z" transform="translate(-98.275 0)"/><path class="a" d="M57.226,322.934H35.289a.843.843,0,0,1-.844-.844v-5.808a2.53,2.53,0,0,1,1.163-2.139,20.614,20.614,0,0,1,21.3,0,2.532,2.532,0,0,1,1.163,2.14v5.808A.843.843,0,0,1,57.226,322.934Zm-21.094-1.687h20.25v-4.964a.832.832,0,0,0-.37-.709,18.893,18.893,0,0,0-19.511,0,.831.831,0,0,0-.369.708Z" transform="translate(0 -295.934)"/></g></svg>