<svg xmlns="http://www.w3.org/2000/svg" width="32" height="30" viewBox="0 0 32 30" fill="#333">
    <g transform="translate(0)">
        <path class="a"
            d="M386.625,421.25a.625.625,0,1,0-.625-.625A.625.625,0,0,0,386.625,421.25Zm0,0"
            transform="translate(-361.875 -393.75)" />
        <path class="a"
            d="M220.625,421.25a.625.625,0,1,0-.625-.625A.625.625,0,0,0,220.625,421.25Zm0,0"
            transform="translate(-206.25 -393.75)" />
        <path class="a"
            d="M31.868,7.741a.625.625,0,0,0-.493-.24H8.875L7.45,1.446A1.869,1.869,0,0,0,5.625,0H1.875a1.875,1.875,0,1,0,0,3.75H4.14l4.66,19.8A1.869,1.869,0,0,0,10.625,25h1.252a3.125,3.125,0,1,0,5,0h5.378a3.125,3.125,0,1,0,5,0h0a1.875,1.875,0,1,0,0-3.75H12.11l-.588-2.5H27.9a1.873,1.873,0,0,0,1.819-1.42l2.263-9.053a.625.625,0,0,0-.114-.536ZM29.637,12.5H25.646l.469-3.75h4.46ZM22.25,13.75H24.23l-.469,3.75H20.375V15.625a.625.625,0,0,0-1.25,0V17.5H15.739l-.469-3.75H17.25a.625.625,0,0,0,0-1.25H15.114l-.469-3.75h4.479v1.875a.625.625,0,0,0,1.25,0V8.75h4.479l-.469,3.75H22.25a.625.625,0,1,0,0,1.25ZM11.228,17.5l-.882-3.75h3.666l.469,3.75Zm2.158-8.75.469,3.75h-3.8L9.169,8.75ZM16.25,26.875A1.875,1.875,0,1,1,14.375,25,1.877,1.877,0,0,1,16.25,26.875Zm10.375,0A1.875,1.875,0,1,1,24.75,25,1.877,1.877,0,0,1,26.625,26.875ZM27.25,22.5a.625.625,0,0,1,0,1.25H10.625a.623.623,0,0,1-.608-.482L5.13,2.5H1.875a.625.625,0,1,1,0-1.25h3.75a.623.623,0,0,1,.608.482L10.12,18.251v0l1,4.247Zm1.256-5.474a.625.625,0,0,1-.607.474H25.021l.469-3.75h3.835Zm0,0" />
        <path class="a" d="M306.625,200a.625.625,0,1,0,.625.625A.625.625,0,0,0,306.625,200Zm0,0"
            transform="translate(-286.875 -187.5)" />
    </g>
</svg>