<svg xmlns="http://www.w3.org/2000/svg" width="17.354" height="16.085" viewBox="0 0 17.354 16.085">
  <g id="select" transform="translate(0 -5.445)">
    <path id="Path_291" data-name="Path 291" d="M39.224,15.438a.873.873,0,0,0-1.236,0L30.147,23.28l-3.612-3.612A.874.874,0,0,0,25.3,20.9l4.23,4.23a.874.874,0,0,0,1.236,0l8.459-8.46A.874.874,0,0,0,39.224,15.438Z" transform="translate(-22.126 -8.603)" fill="#f90"/>
    <path id="Path_292" data-name="Path 292" d="M15.211,12.435a.874.874,0,0,0-.874.874v6.474H1.747V7.192h9.969a.874.874,0,0,0,0-1.747H.874A.874.874,0,0,0,0,6.319V20.656a.874.874,0,0,0,.874.874H15.211a.874.874,0,0,0,.874-.874V13.309A.874.874,0,0,0,15.211,12.435Z" fill="#646464"/>
  </g>
</svg>
