<svg xmlns="http://www.w3.org/2000/svg" width="41" height="39.584" viewBox="0 0 41 39.584">
  <g id="calendar_2_" data-name="calendar (2)" transform="translate(0 -0.496)">
    <path id="Path_363" data-name="Path 363" d="M33.931,4.738a2.121,2.121,0,0,0-2.121-2.121H29.69a2.121,2.121,0,1,0-4.241,0H22.621a2.121,2.121,0,1,0-4.241,0H15.552a2.121,2.121,0,0,0-4.241,0H8.483a2.121,2.121,0,1,0-4.241,0H2.121A2.121,2.121,0,0,0,0,4.738v29.69a.707.707,0,0,0,.707.707H2.828v2.121a.707.707,0,0,0,.707.707H22.149c.009,0,.016,0,.025,0A12.008,12.008,0,1,0,33.931,17.127ZM26.862,2.617a.707.707,0,1,1,1.414,0V4.738H26.862Zm-7.069,0a.707.707,0,1,1,1.414,0V4.738H19.793Zm-7.069,0a.707.707,0,1,1,1.414,0V4.738H12.724Zm-7.069,0a.707.707,0,1,1,1.414,0V4.738H5.655ZM1.414,4.738a.707.707,0,0,1,.707-.707H4.241V5.444a.707.707,0,0,0,.707.707H7.776a.707.707,0,0,0,.707-.707V4.031H11.31V5.444a.707.707,0,0,0,.707.707h2.828a.707.707,0,0,0,.707-.707V4.031H18.38V5.444a.707.707,0,0,0,.707.707h2.828a.707.707,0,0,0,.707-.707V4.031h2.828V5.444a.707.707,0,0,0,.707.707h2.828a.707.707,0,0,0,.707-.707V4.031h2.121a.707.707,0,0,1,.707.707V8.272H1.414Zm2.828,30.4H19.287a12.019,12.019,0,0,0,1.193,1.414H4.241Zm35.345-7.069a10.6,10.6,0,1,1-10.6-10.6A10.6,10.6,0,0,1,39.587,28.065Zm-10.6-12.017a12.009,12.009,0,0,0-10.6,17.673H1.414V9.686h31.1V16.58a11.982,11.982,0,0,0-3.535-.532Zm0,0" fill="#333"/>
    <path id="Path_364" data-name="Path 364" d="M50.121,136.5a2.121,2.121,0,1,0,2.121,2.121A2.121,2.121,0,0,0,50.121,136.5Zm0,2.828a.707.707,0,1,1,.707-.707A.707.707,0,0,1,50.121,139.324Zm0,0" transform="translate(-43.759 -123.983)" fill="#333"/>
    <path id="Path_365" data-name="Path 365" d="M130.121,136.5a2.121,2.121,0,1,0,2.121,2.121A2.121,2.121,0,0,0,130.121,136.5Zm0,2.828a.707.707,0,1,1,.707-.707A.707.707,0,0,1,130.121,139.324Zm0,0" transform="translate(-116.69 -123.983)" fill="#333"/>
    <path id="Path_366" data-name="Path 366" d="M210.121,136.5a2.121,2.121,0,1,0,2.121,2.121A2.121,2.121,0,0,0,210.121,136.5Zm0,2.828a.707.707,0,1,1,.707-.707A.707.707,0,0,1,210.121,139.324Zm0,0" transform="translate(-189.62 -123.983)" fill="#333"/>
    <path id="Path_367" data-name="Path 367" d="M50.121,200.5a2.121,2.121,0,1,0,2.121,2.121A2.121,2.121,0,0,0,50.121,200.5Zm0,2.828a.707.707,0,1,1,.707-.707A.707.707,0,0,1,50.121,203.324Zm0,0" transform="translate(-43.759 -182.327)" fill="#333"/>
    <path id="Path_368" data-name="Path 368" d="M130.121,200.5a2.121,2.121,0,1,0,2.121,2.121A2.121,2.121,0,0,0,130.121,200.5Zm0,2.828a.707.707,0,1,1,.707-.707A.707.707,0,0,1,130.121,203.324Zm0,0" transform="translate(-116.69 -182.327)" fill="#333"/>
    <path id="Path_369" data-name="Path 369" d="M50.121,264.5a2.121,2.121,0,1,0,2.121,2.121A2.121,2.121,0,0,0,50.121,264.5Zm0,2.828a.707.707,0,1,1,.707-.707A.707.707,0,0,1,50.121,267.324Zm0,0" transform="translate(-43.759 -240.672)" fill="#333"/>
    <path id="Path_370" data-name="Path 370" d="M130.121,264.5a2.121,2.121,0,1,0,2.121,2.121A2.121,2.121,0,0,0,130.121,264.5Zm0,2.828a.707.707,0,1,1,.707-.707A.707.707,0,0,1,130.121,267.324Zm0,0" transform="translate(-116.69 -240.672)" fill="#333"/>
    <path id="Path_371" data-name="Path 371" d="M224,217.686a9.19,9.19,0,1,0,9.19-9.19A9.19,9.19,0,0,0,224,217.686Zm16.966,0h-1.414a.707.707,0,0,0,0,1.414h1.279a7.786,7.786,0,0,1-6.934,6.326v-1.378a.707.707,0,1,0-1.414,0v1.378a7.786,7.786,0,0,1-6.934-6.326h1.279a.707.707,0,1,0,0-1.414h-1.414a7.783,7.783,0,0,1,7.069-7.74v1.378a.707.707,0,1,0,1.414,0v-1.378A7.783,7.783,0,0,1,240.966,217.686Zm0,0" transform="translate(-204.207 -189.62)" fill="#333"/>
    <path id="Path_372" data-name="Path 372" d="M306.27,275.688l-.978-1.467a.707.707,0,1,0-1.176.785l1.414,2.121a.709.709,0,0,0,.486.307.625.625,0,0,0,.1.008.706.706,0,0,0,.453-.163l4.241-3.535a.707.707,0,0,0-.905-1.087Zm0,0" transform="translate(-277.135 -247.962)" fill="#333"/>
  </g>
</svg>
