<svg xmlns="http://www.w3.org/2000/svg" width="35.173" height="36" viewBox="0 0 35.173 36">
  <g id="calendar" transform="translate(0)">
    <path id="Path_352" data-name="Path 352" d="M195.254,283.336a1.063,1.063,0,0,0,1.5,0l3.8-3.8a1.063,1.063,0,0,0-1.5-1.5l-3.043,3.043-1.388-1.388a1.063,1.063,0,0,0-1.5,1.5Zm0,0" transform="translate(-179.247 -258.198)" fill="#333"/>
    <path id="Path_353" data-name="Path 353" d="M138.544,216.693a8.439,8.439,0,1,0-8.439-8.439A8.448,8.448,0,0,0,138.544,216.693Zm0-14.751a6.313,6.313,0,1,1-6.313,6.313A6.32,6.32,0,0,1,138.544,201.942Zm0,0" transform="translate(-120.957 -185.766)" fill="#333"/>
    <path id="Path_354" data-name="Path 354" d="M31.735,2.263H29.8v-1.2a1.063,1.063,0,1,0-2.126,0v1.2H25.582v-1.2a1.063,1.063,0,0,0-2.126,0v1.2H11.718v-1.2a1.063,1.063,0,0,0-2.126,0v1.2H7.5v-1.2a1.063,1.063,0,0,0-2.126,0v1.2H3.438A3.442,3.442,0,0,0,0,5.7V32.563A3.442,3.442,0,0,0,3.438,36h28.3a3.442,3.442,0,0,0,3.438-3.438V5.7a3.442,3.442,0,0,0-3.438-3.438Zm1.312,30.3a1.313,1.313,0,0,1-1.312,1.312H3.438a1.313,1.313,0,0,1-1.312-1.312V11.1H33.047ZM2.126,5.7A1.313,1.313,0,0,1,3.438,4.39H5.377v1.2a1.063,1.063,0,0,0,2.126,0V4.39H9.592v1.2a1.063,1.063,0,0,0,2.126,0V4.39H23.456v1.2a1.063,1.063,0,0,0,2.126,0V4.39h2.089v1.2a1.063,1.063,0,0,0,2.126,0V4.39h1.939A1.313,1.313,0,0,1,33.047,5.7V8.976H2.126Zm0,0" fill="#333"/>
  </g>
</svg>
