<svg xmlns="http://www.w3.org/2000/svg" width="41.613" height="26.323" viewBox="0 0 41.613 26.323">
  <g id="shipped" transform="translate(0 -94.062)">
    <g id="Group_41" data-name="Group 41" transform="translate(0 94.062)">
      <g id="Group_40" data-name="Group 40" transform="translate(0 0)">
        <path id="Path_95" data-name="Path 95" d="M38.7,105.221l-1.078-4.31a.652.652,0,0,0,.516-.637v-.695A2.74,2.74,0,0,0,35.4,96.842H30.493V95.409a1.348,1.348,0,0,0-1.347-1.347H4.127A1.348,1.348,0,0,0,2.78,95.409v11.815a.652.652,0,1,0,1.3,0V95.409a.043.043,0,0,1,.043-.043h25.02a.043.043,0,0,1,.043.043v11.815a.652.652,0,1,0,1.3,0v-.739h7.69a2.132,2.132,0,0,1,2.025,1.477H38.181a.652.652,0,0,0-.652.652V110a2.044,2.044,0,0,0,2.042,2.042h.738v2.867h-1.7a4.125,4.125,0,0,0-7.8,0h-.314V110a.652.652,0,1,0-1.3,0v4.908H15.671a4.125,4.125,0,0,0-7.8,0H4.127a.043.043,0,0,1-.043-.043v-1.433H6.907a.652.652,0,1,0,0-1.3H.652a.652.652,0,1,0,0,1.3H2.78v1.433a1.348,1.348,0,0,0,1.347,1.347h3.52c0,.014,0,.029,0,.043a4.127,4.127,0,1,0,8.253,0c0-.015,0-.029,0-.043H30.581c0,.014,0,.029,0,.043a4.127,4.127,0,1,0,8.253,0c0-.015,0-.029,0-.043h2.13a.652.652,0,0,0,.652-.652v-6.95A3.437,3.437,0,0,0,38.7,105.221Zm-8.207-7.076H35.4a1.435,1.435,0,0,1,1.433,1.433v.043H30.493Zm0,7.037v-4.257h5.79l1.064,4.257H30.493Zm-18.722,13.9a2.823,2.823,0,1,1,2.823-2.823A2.827,2.827,0,0,1,11.772,119.082Zm22.935,0a2.823,2.823,0,1,1,2.823-2.823A2.827,2.827,0,0,1,34.707,119.082Zm5.6-8.34h-.738a.739.739,0,0,1-.738-.738v-.738H40.31v1.477Z" transform="translate(0 -94.062)" fill="#333"/>
      </g>
    </g>
    <g id="Group_43" data-name="Group 43" transform="translate(10.425 114.912)">
      <g id="Group_42" data-name="Group 42" transform="translate(0 0)">
        <path id="Path_96" data-name="Path 96" d="M129.614,350.6a1.347,1.347,0,1,0,1.347,1.347A1.348,1.348,0,0,0,129.614,350.6Z" transform="translate(-128.267 -350.597)" fill="#333"/>
      </g>
    </g>
    <g id="Group_45" data-name="Group 45" transform="translate(33.36 114.912)">
      <g id="Group_44" data-name="Group 44" transform="translate(0 0)">
        <path id="Path_97" data-name="Path 97" d="M411.8,350.6a1.347,1.347,0,1,0,1.347,1.347A1.348,1.348,0,0,0,411.8,350.6Z" transform="translate(-410.455 -350.597)" fill="#333"/>
      </g>
    </g>
    <g id="Group_47" data-name="Group 47" transform="translate(16.68 112.132)">
      <g id="Group_46" data-name="Group 46">
        <path id="Path_98" data-name="Path 98" d="M215.609,316.393h-9.73a.652.652,0,1,0,0,1.3h9.73a.652.652,0,1,0,0-1.3Z" transform="translate(-205.227 -316.393)" fill="#333"/>
      </g>
    </g>
    <g id="Group_49" data-name="Group 49" transform="translate(1.39 109.352)">
      <g id="Group_48" data-name="Group 48" transform="translate(0 0)">
        <path id="Path_99" data-name="Path 99" d="M26.094,282.188h-8.34a.652.652,0,1,0,0,1.3h8.34a.652.652,0,1,0,0-1.3Z" transform="translate(-17.102 -282.188)" fill="#333"/>
      </g>
    </g>
    <g id="Group_51" data-name="Group 51" transform="translate(11.815 100.317)">
      <g id="Group_50" data-name="Group 50" transform="translate(0 0)">
        <path id="Path_100" data-name="Path 100" d="M156.212,171.213a.652.652,0,0,0-.921,0l-5.794,5.794-3.014-3.014a.652.652,0,1,0-.921.921l3.475,3.475a.651.651,0,0,0,.921,0l6.255-6.255A.652.652,0,0,0,156.212,171.213Z" transform="translate(-145.37 -171.023)" fill="#333"/>
      </g>
    </g>
  </g>
</svg>
