<svg xmlns="http://www.w3.org/2000/svg" width="31.268" height="27.3" viewBox="0 0 31.268 27.3">
  <g id="shop" transform="translate(0 -31.05)" style="isolation: isolate">
    <g id="Group_23" data-name="Group 23" transform="translate(0 31.05)">
      <path id="Path_33" data-name="Path 33" d="M254.557,263.75h-4.249a2.11,2.11,0,0,0-2.108,2.108v3.258a2.11,2.11,0,0,0,2.108,2.108h4.249a2.11,2.11,0,0,0,2.108-2.108v-3.258A2.11,2.11,0,0,0,254.557,263.75Zm.575,5.367a.577.577,0,0,1-.575.575h-4.249a.577.577,0,0,1-.575-.575v-3.258a.577.577,0,0,1,.575-.575h4.249a.577.577,0,0,1,.575.575Z" transform="translate(-232.343 -248.883)" fill="#ff4600"/>
      <path id="Path_34" data-name="Path 34" d="M31.268,39.995a.712.712,0,0,0-.1-.377L26.514,31.44a.771.771,0,0,0-.664-.39H5.411a.758.758,0,0,0-.664.39L.1,39.618a.775.775,0,0,0-.1.377,4.485,4.485,0,0,0,2.683,4.1V57.583a.769.769,0,0,0,.767.767H27.811a.769.769,0,0,0,.767-.767V44.192a.337.337,0,0,0-.006-.083A4.5,4.5,0,0,0,31.268,39.995ZM5.859,32.59H25.4l3.635,6.4H2.23Zm16.394,7.922a2.947,2.947,0,0,1-5.8,0Zm-7.43,0a2.95,2.95,0,0,1-5.808,0Zm-13.238,0H7.392a2.95,2.95,0,0,1-5.808,0Zm11.3,16.3H8.472V48.543A1.092,1.092,0,0,1,9.564,47.45h2.23a1.092,1.092,0,0,1,1.093,1.093v8.274Zm14.164,0H14.414V48.543a2.63,2.63,0,0,0-2.626-2.626H9.558a2.63,2.63,0,0,0-2.626,2.626v8.28H4.217V44.473c.089.006.179.006.268.006A4.479,4.479,0,0,0,8.2,42.5a4.481,4.481,0,0,0,7.437,0,4.469,4.469,0,0,0,7.424,0,4.479,4.479,0,0,0,3.718,1.981c.089,0,.173-.006.262-.006V56.817Zm-.262-13.87a2.945,2.945,0,0,1-2.9-2.428H29.69A2.963,2.963,0,0,1,26.783,42.946Z" transform="translate(0 -31.05)" fill="#ff4600"/>
    </g>
  </g>
</svg>
