<svg xmlns="http://www.w3.org/2000/svg" width="17" height="17" viewBox="0 0 17 17"><defs><style>.a{fill:#f90;}</style></defs><path class="a" d="M16,9.7V1.527a.5.5,0,0,0-.5-.5H12.982V.5a.5.5,0,0,0-1,0v.531H9.994V.5a.5.5,0,0,0-1,0v.531H7.006V.5a.5.5,0,0,0-1,0v.531H4.018V.5a.5.5,0,0,0-1,0v.531H.5a.5.5,0,0,0-.5.5V14.51a.5.5,0,0,0,.5.5H8.792A4.481,4.481,0,1,0,16,9.7ZM3.021,2.025v.5a.5.5,0,0,0,1,0v-.5H6.01v.5a.5.5,0,0,0,1,0v-.5H9v.5a.5.5,0,0,0,1,0v-.5h1.992v.5a.5.5,0,0,0,1,0v-.5h2.025V4.018H1V2.025ZM1,14.012v-9H15.008V8.792a4.477,4.477,0,0,0-6.251,1.289.5.5,0,0,0-.224-.054h-1a.5.5,0,1,0,0,1h.754a4.445,4.445,0,0,0-.229,1H7.537a.5.5,0,1,0,0,1h.526a4.438,4.438,0,0,0,.229,1ZM12.518,16A3.486,3.486,0,1,1,16,12.518,3.49,3.49,0,0,1,12.518,16Zm0,0"/><path class="a" d="M364.49,303.992H363V302.5a.5.5,0,0,0-1,0v1.992a.5.5,0,0,0,.5.5h1.992a.5.5,0,0,0,0-1Zm0,0" transform="translate(-349.98 -291.973)"/><path class="a" d="M92.494,182h-1a.5.5,0,0,0,0,1h1a.5.5,0,0,0,0-1Zm0,0" transform="translate(-87.979 -175.957)"/><path class="a" d="M92.494,242h-1a.5.5,0,0,0,0,1h1a.5.5,0,0,0,0-1Zm0,0" transform="translate(-87.979 -233.965)"/><path class="a" d="M92.494,302h-1a.5.5,0,0,0,0,1h1a.5.5,0,0,0,0-1Zm0,0" transform="translate(-87.979 -291.973)"/><path class="a" d="M212.5,183h1a.5.5,0,0,0,0-1h-1a.5.5,0,0,0,0,1Zm0,0" transform="translate(-204.961 -175.957)"/><path class="a" d="M212.5,243h1a.5.5,0,0,0,0-1h-1a.5.5,0,0,0,0,1Zm0,0" transform="translate(-204.961 -233.965)"/><path class="a" d="M92.494,362h-1a.5.5,0,0,0,0,1h1a.5.5,0,0,0,0-1Zm0,0" transform="translate(-87.979 -349.98)"/><path class="a" d="M332.5,183h1a.5.5,0,0,0,0-1h-1a.5.5,0,0,0,0,1Zm0,0" transform="translate(-320.977 -175.957)"/></svg>